<svg width="32" height="32" viewBox="0 0 32 32" fill="none" xmlns="http://www.w3.org/2000/svg">
<rect width="32" height="32" rx="8.27273" fill="#35D6A5"/>
<path d="M15.9997 8C11.582 8 8 11.582 8 15.9997C8 20.4174 11.582 24 15.9997 24C20.4174 24 24 20.4174 24 15.9997C24 11.582 20.4174 8 15.9997 8ZM17.665 20.3984C17.2532 20.5609 16.9255 20.6842 16.6796 20.7695C16.4039 20.8596 16.115 20.9028 15.8249 20.8975C15.3265 20.8975 14.9384 20.7756 14.6621 20.5325C14.3858 20.2894 14.2483 19.9812 14.2483 19.6067C14.2483 19.4611 14.2585 19.3121 14.2788 19.1604C14.3039 18.9876 14.3371 18.816 14.3783 18.6463L14.8937 16.8259C14.9391 16.6512 14.9784 16.4852 15.0095 16.3308C15.0407 16.1751 15.0556 16.0322 15.0556 15.9021C15.0556 15.6705 15.0075 15.508 14.912 15.4166C14.8152 15.3251 14.633 15.2804 14.3614 15.2804C14.2287 15.2804 14.0919 15.3001 13.9517 15.3414C13.8128 15.384 13.6923 15.4226 13.5934 15.4606L13.7295 14.8998C14.0668 14.7623 14.3898 14.6445 14.698 14.547C14.9798 14.4527 15.2745 14.4029 15.5716 14.3993C16.0667 14.3993 16.4487 14.5199 16.7175 14.7583C16.9851 14.9973 17.1198 15.3082 17.1198 15.6902C17.1198 15.7694 17.1103 15.9089 17.0921 16.108C17.0762 16.2941 17.0417 16.4781 16.9891 16.6573L16.4764 18.4723C16.4305 18.6365 16.3927 18.8028 16.3633 18.9708C16.3354 19.1105 16.3189 19.2523 16.3139 19.3947C16.3139 19.6358 16.3674 19.8004 16.4758 19.8877C16.5828 19.9751 16.7704 20.0191 17.0359 20.0191C17.1611 20.0191 17.3013 19.9968 17.4598 19.9534C17.6169 19.9101 17.7307 19.8715 17.8025 19.8383L17.665 20.3984ZM17.5743 13.0313C17.3412 13.2511 17.0311 13.3707 16.7108 13.3645C16.3749 13.3645 16.085 13.2534 15.8439 13.0313C15.7292 12.9304 15.6376 12.8061 15.5754 12.6666C15.5131 12.5272 15.4815 12.376 15.4829 12.2233C15.4829 11.9084 15.6048 11.6375 15.8439 11.4133C16.0775 11.1918 16.3888 11.0709 16.7108 11.0767C17.0474 11.0767 17.3359 11.1885 17.5743 11.4133C17.8133 11.6375 17.9332 11.9084 17.9332 12.2233C17.9332 12.5396 17.8133 12.8091 17.5743 13.0313Z" fill="white"/>
</svg>
