<svg width="40" height="40" viewBox="0 0 40 40" fill="none" xmlns="http://www.w3.org/2000/svg">
    <rect width="40" height="40" rx="10.4681" fill="white" />
    <path
        d="M10 20C10 16.2288 10 14.3431 11.1716 13.1716C12.3431 12 14.2288 12 18 12H22C25.7712 12 27.6569 12 28.8284 13.1716C30 14.3431 30 16.2288 30 20V22C30 25.7712 30 27.6569 28.8284 28.8284C27.6569 30 25.7712 30 22 30H18C14.2288 30 12.3431 30 11.1716 28.8284C10 27.6569 10 25.7712 10 22V20Z"
        stroke="#292D32" stroke-width="1.5" />
    <path d="M15 12V10.5" stroke="#292D32" stroke-width="1.5" stroke-linecap="round" />
    <path d="M25 12V10.5" stroke="#292D32" stroke-width="1.5" stroke-linecap="round" />
    <path d="M10.5 17H29.5" stroke="#292D32" stroke-width="1.5" stroke-linecap="round" />
    <path
        d="M26 25C26 25.5523 25.5523 26 25 26C24.4477 26 24 25.5523 24 25C24 24.4477 24.4477 24 25 24C25.5523 24 26 24.4477 26 25Z"
        fill="#EC2525" />
    <path
        d="M26 21C26 21.5523 25.5523 22 25 22C24.4477 22 24 21.5523 24 21C24 20.4477 24.4477 20 25 20C25.5523 20 26 20.4477 26 21Z"
        fill="#EC2525" />
    <path
        d="M21 25C21 25.5523 20.5523 26 20 26C19.4477 26 19 25.5523 19 25C19 24.4477 19.4477 24 20 24C20.5523 24 21 24.4477 21 25Z"
        fill="#EC2525" />
    <path
        d="M21 21C21 21.5523 20.5523 22 20 22C19.4477 22 19 21.5523 19 21C19 20.4477 19.4477 20 20 20C20.5523 20 21 20.4477 21 21Z"
        fill="#EC2525" />
    <path
        d="M16 25C16 25.5523 15.5523 26 15 26C14.4477 26 14 25.5523 14 25C14 24.4477 14.4477 24 15 24C15.5523 24 16 24.4477 16 25Z"
        fill="#EC2525" />
    <path
        d="M16 21C16 21.5523 15.5523 22 15 22C14.4477 22 14 21.5523 14 21C14 20.4477 14.4477 20 15 20C15.5523 20 16 20.4477 16 21Z"
        fill="#EC2525" />
</svg>
