<svg width="40" height="40" viewBox="0 0 40 40" fill="none" xmlns="http://www.w3.org/2000/svg">
<rect width="40" height="40" rx="10.4681" fill="white"/>
<path d="M10 20C10 16.2288 10 14.3431 11.1716 13.1716C12.3431 12 14.2288 12 18 12H22C25.7712 12 27.6569 12 28.8284 13.1716C30 14.3431 30 16.2288 30 20C30 23.7712 30 25.6569 28.8284 26.8284C27.6569 28 25.7712 28 22 28H18C14.2288 28 12.3431 28 11.1716 26.8284C10 25.6569 10 23.7712 10 20Z" stroke="#1C274C" stroke-width="1.5"/>
<path d="M18 24.5H14" stroke="#FF8410" stroke-width="1.5" stroke-linecap="round"/>
<path d="M16 21.5H14" stroke="#FF8410" stroke-width="1.5" stroke-linecap="round"/>
<path d="M10 18L30 18" stroke="#1C274C" stroke-width="1.5" stroke-linecap="round"/>
<path d="M22 23C22 22.0572 22 21.5858 22.2929 21.2929C22.5858 21 23.0572 21 24 21C24.9428 21 25.4142 21 25.7071 21.2929C26 21.5858 26 22.0572 26 23C26 23.9428 26 24.4142 25.7071 24.7071C25.4142 25 24.9428 25 24 25C23.0572 25 22.5858 25 22.2929 24.7071C22 24.4142 22 23.9428 22 23Z" stroke="#FF8410" stroke-width="1.5"/>
</svg>
