<svg width="34" height="34" viewBox="0 0 34 34" fill="none" xmlns="http://www.w3.org/2000/svg">
    <circle cx="17" cy="17" r="14.875" fill="#36D6A5" stroke="white" stroke-width="4.25" />
    <path fill-rule="evenodd" clip-rule="evenodd"
        d="M12.625 22C12.625 21.7929 12.7929 21.625 13 21.625H21C21.2071 21.625 21.375 21.7929 21.375 22C21.375 22.2071 21.2071 22.375 21 22.375H13C12.7929 22.375 12.625 22.2071 12.625 22Z"
        fill="white" />
    <path
        d="M16.76 18.4645L16.76 18.4645L19.7184 15.5061C19.3158 15.3385 18.8389 15.0633 18.3879 14.6123C17.9368 14.1612 17.6615 13.6842 17.4939 13.2816L14.5355 16.24L14.5355 16.24C14.3047 16.4708 14.1892 16.5863 14.09 16.7135C13.9729 16.8637 13.8725 17.0261 13.7905 17.198C13.7211 17.3437 13.6695 17.4986 13.5662 17.8083L13.0218 19.4417C12.971 19.5941 13.0106 19.7621 13.1243 19.8757C13.2379 19.9894 13.4059 20.029 13.5583 19.9782L15.1917 19.4338C15.5014 19.3305 15.6563 19.2789 15.802 19.2095C15.9739 19.1275 16.1363 19.0271 16.2865 18.91C16.4137 18.8108 16.5292 18.6953 16.76 18.4645Z"
        fill="white" />
    <path
        d="M20.5393 14.6852C21.1536 14.0709 21.1536 13.075 20.5393 12.4607C19.925 11.8464 18.9291 11.8464 18.3148 12.4607L17.96 12.8155C17.9648 12.8302 17.9699 12.8451 17.9751 12.8601C18.1051 13.235 18.3505 13.7264 18.8121 14.188C19.2737 14.6496 19.7651 14.895 20.14 15.025C20.155 15.0303 20.1698 15.0353 20.1844 15.0401L20.5393 14.6852Z"
        fill="white" />
</svg>
