<svg width="48" height="48" viewBox="0 0 48 48" fill="none" xmlns="http://www.w3.org/2000/svg">
<rect opacity="0.12" width="48" height="48" rx="12" fill="#1877F2"/>
<path d="M35.5232 23.7616C35.5232 17.2927 30.2305 12 23.7616 12C17.2927 12 12 17.2927 12 23.7616C12 29.6424 16.2636 34.494 21.8503 35.3762V27.143H18.9099V23.7616H21.8503V21.1152C21.8503 18.1748 23.6146 16.5576 26.2609 16.5576C27.5841 16.5576 28.9073 16.8517 28.9073 16.8517V19.7921H27.4371C25.9669 19.7921 25.5258 20.6742 25.5258 21.5563V23.7616H28.7603L28.1722 27.143H25.3788V35.5232C31.2596 34.6411 35.5232 29.6424 35.5232 23.7616Z" fill="#1877F2"/>
</svg>
