<svg width="48" height="48" viewBox="0 0 48 48" fill="none" xmlns="http://www.w3.org/2000/svg">
<rect opacity="0.12" width="48" height="48" rx="12" fill="#2867B2"/>
<path d="M17.2927 35.5232H12.294V19.7921H17.2927V35.5232ZM14.7934 17.5868C13.1762 17.5868 12 16.4106 12 14.7934C12 13.1762 13.3232 12 14.7934 12C16.4106 12 17.5868 13.1762 17.5868 14.7934C17.5868 16.4106 16.4106 17.5868 14.7934 17.5868ZM35.5232 35.5232H30.5245V26.996C30.5245 24.4967 29.4954 23.7616 28.0252 23.7616C26.555 23.7616 25.0848 24.9377 25.0848 27.143V35.5232H20.0861V19.7921H24.7907V21.9974C25.2318 20.9682 26.996 19.351 29.4954 19.351C32.2887 19.351 35.2291 20.9682 35.2291 25.8199V35.5232H35.5232Z" fill="#2867B2"/>
</svg>
