<svg width="48" height="48" viewBox="0 0 48 48" fill="none" xmlns="http://www.w3.org/2000/svg">
<rect opacity="0.12" width="48" height="48" rx="12" fill="#B2329B"/>
<path d="M24.2738 14.2181C27.527 14.2181 27.9707 14.2181 29.3016 14.2181C30.4846 14.2181 31.0761 14.5139 31.5197 14.6618C32.1112 14.9575 32.5548 15.1054 32.9985 15.549C33.4421 15.9927 33.7379 16.4363 33.8857 17.0278C34.0336 17.4714 34.1815 18.0629 34.3294 19.246C34.3294 20.5768 34.3294 20.8726 34.3294 24.2738C34.3294 27.6749 34.3294 27.9707 34.3294 29.3016C34.3294 30.4846 34.0336 31.0761 33.8857 31.5197C33.59 32.1112 33.4421 32.5548 32.9985 32.9985C32.5548 33.4421 32.1112 33.7379 31.5197 33.8857C31.0761 34.0336 30.4846 34.1815 29.3016 34.3294C27.9707 34.3294 27.6749 34.3294 24.2738 34.3294C20.8726 34.3294 20.5768 34.3294 19.246 34.3294C18.0629 34.3294 17.4714 34.0336 17.0278 33.8857C16.4363 33.59 15.9927 33.4421 15.549 32.9985C15.1054 32.5548 14.8097 32.1112 14.6618 31.5197C14.5139 31.0761 14.366 30.4846 14.2181 29.3016C14.2181 27.9707 14.2181 27.6749 14.2181 24.2738C14.2181 20.8726 14.2181 20.5768 14.2181 19.246C14.2181 18.0629 14.5139 17.4714 14.6618 17.0278C14.9575 16.4363 15.1054 15.9927 15.549 15.549C15.9927 15.1054 16.4363 14.8097 17.0278 14.6618C17.4714 14.5139 18.0629 14.366 19.246 14.2181C20.5768 14.2181 21.0205 14.2181 24.2738 14.2181ZM24.2738 12C20.8726 12 20.5768 12 19.246 12C17.9151 12 17.0278 12.2958 16.2884 12.5915C15.549 12.8873 14.8097 13.3309 14.0703 14.0703C13.3309 14.8097 13.0351 15.4012 12.5915 16.2884C12.2958 17.0278 12.1479 17.9151 12 19.246C12 20.5768 12 21.0205 12 24.2738C12 27.6749 12 27.9707 12 29.3016C12 30.6325 12.2958 31.5197 12.5915 32.2591C12.8873 32.9985 13.3309 33.7379 14.0703 34.4772C14.8097 35.2166 15.4012 35.5124 16.2884 35.956C17.0278 36.2518 17.9151 36.3996 19.246 36.5475C20.5768 36.5475 21.0205 36.5475 24.2738 36.5475C27.527 36.5475 27.9707 36.5475 29.3016 36.5475C30.6325 36.5475 31.5197 36.2518 32.2591 35.956C32.9985 35.6603 33.7379 35.2166 34.4772 34.4772C35.2166 33.7379 35.5124 33.1464 35.956 32.2591C36.2518 31.5197 36.3996 30.6325 36.5475 29.3016C36.5475 27.9707 36.5475 27.527 36.5475 24.2738C36.5475 21.0205 36.5475 20.5768 36.5475 19.246C36.5475 17.9151 36.2518 17.0278 35.956 16.2884C35.6603 15.549 35.2166 14.8097 34.4772 14.0703C33.7379 13.3309 33.1464 13.0351 32.2591 12.5915C31.5197 12.2958 30.6325 12.1479 29.3016 12C27.9707 12 27.6749 12 24.2738 12Z" fill="url(#paint0_linear_2007_1060)"/>
<path d="M24.2738 17.9151C20.7247 17.9151 17.9151 20.7247 17.9151 24.2738C17.9151 27.8228 20.7247 30.6325 24.2738 30.6325C27.8228 30.6325 30.6325 27.8228 30.6325 24.2738C30.6325 20.7247 27.8228 17.9151 24.2738 17.9151ZM24.2738 28.4143C22.0556 28.4143 20.1332 26.6398 20.1332 24.2738C20.1332 22.0556 21.9077 20.1332 24.2738 20.1332C26.4919 20.1332 28.4143 21.9077 28.4143 24.2738C28.4143 26.4919 26.4919 28.4143 24.2738 28.4143Z" fill="url(#paint1_linear_2007_1060)"/>
<path d="M30.7803 19.246C31.597 19.246 32.2591 18.5839 32.2591 17.7672C32.2591 16.9505 31.597 16.2884 30.7803 16.2884C29.9636 16.2884 29.3016 16.9505 29.3016 17.7672C29.3016 18.5839 29.9636 19.246 30.7803 19.246Z" fill="url(#paint2_linear_2007_1060)"/>
<defs>
<linearGradient id="paint0_linear_2007_1060" x1="24.2738" y1="12" x2="24.2738" y2="36.5475" gradientUnits="userSpaceOnUse">
<stop stop-color="#6E4CC5"/>
<stop offset="0.577222" stop-color="#B3329A"/>
<stop offset="1" stop-color="#F79D54"/>
</linearGradient>
<linearGradient id="paint1_linear_2007_1060" x1="24.2738" y1="12" x2="24.2738" y2="36.5475" gradientUnits="userSpaceOnUse">
<stop stop-color="#6E4CC5"/>
<stop offset="0.577222" stop-color="#B3329A"/>
<stop offset="1" stop-color="#F79D54"/>
</linearGradient>
<linearGradient id="paint2_linear_2007_1060" x1="24.2738" y1="12" x2="24.2738" y2="36.5475" gradientUnits="userSpaceOnUse">
<stop stop-color="#6E4CC5"/>
<stop offset="0.577222" stop-color="#B3329A"/>
<stop offset="1" stop-color="#F79D54"/>
</linearGradient>
</defs>
</svg>
