<svg width="60" height="60" viewBox="0 0 60 60" fill="none" xmlns="http://www.w3.org/2000/svg">
    <g filter="url(#filter0_d_2001_1054)">
        <rect x="6" y="2" width="48" height="48" rx="12" fill="#4D94FF" />
    </g>
    <g clip-path="url(#clip0_2001_1054)">
        <path
            d="M38.62 22.45C37.57 17.83 33.54 15.75 30 15.75C30 15.75 30 15.75 29.99 15.75C26.46 15.75 22.42 17.82 21.37 22.44C20.2 27.6 23.36 31.97 26.22 34.72C27.28 35.74 28.64 36.25 30 36.25C31.36 36.25 32.72 35.74 33.77 34.72C36.63 31.97 39.79 27.61 38.62 22.45ZM30 27.46C28.26 27.46 26.85 26.05 26.85 24.31C26.85 22.57 28.26 21.16 30 21.16C31.74 21.16 33.15 22.57 33.15 24.31C33.15 26.05 31.74 27.46 30 27.46Z"
            fill="white" />
    </g>
    <defs>
        <filter id="filter0_d_2001_1054" x="0.6" y="0.6" width="58.8" height="58.8"
            filterUnits="userSpaceOnUse" color-interpolation-filters="sRGB">
            <feFlood flood-opacity="0" result="BackgroundImageFix" />
            <feColorMatrix in="SourceAlpha" type="matrix"
                values="0 0 0 0 0 0 0 0 0 0 0 0 0 0 0 0 0 0 127 0" result="hardAlpha" />
            <feOffset dy="4" />
            <feGaussianBlur stdDeviation="2.7" />
            <feComposite in2="hardAlpha" operator="out" />
            <feColorMatrix type="matrix"
                values="0 0 0 0 0.301961 0 0 0 0 0.580392 0 0 0 0 1 0 0 0 0.29 0" />
            <feBlend mode="normal" in2="BackgroundImageFix" result="effect1_dropShadow_2001_1054" />
            <feBlend mode="normal" in="SourceGraphic" in2="effect1_dropShadow_2001_1054"
                result="shape" />
        </filter>
        <clipPath id="clip0_2001_1054">
            <rect width="24" height="24" fill="white" transform="translate(18 14)" />
        </clipPath>
    </defs>
</svg>
