<svg width="32" height="32" viewBox="0 0 32 32" fill="none" xmlns="http://www.w3.org/2000/svg">
<rect width="32" height="32" rx="8.27273" fill="#735AFF"/>
<path d="M21.45 9.43288L16.8666 7.71621C16.3916 7.54121 15.6166 7.54121 15.1416 7.71621L10.5583 9.43288C9.67498 9.76621 8.95831 10.7995 8.95831 11.7412V18.4912C8.95831 19.1662 9.39998 20.0579 9.94165 20.4579L14.525 23.8829C15.3333 24.4912 16.6583 24.4912 17.4666 23.8829L22.05 20.4579C22.5916 20.0495 23.0333 19.1662 23.0333 18.4912V11.7412C23.0416 10.7995 22.325 9.76621 21.45 9.43288ZM18.9 14.0995L15.3166 17.6829C15.1916 17.8079 15.0333 17.8662 14.875 17.8662C14.7166 17.8662 14.5583 17.8079 14.4333 17.6829L13.1 16.3329C12.8583 16.0912 12.8583 15.6912 13.1 15.4495C13.3416 15.2079 13.7416 15.2079 13.9833 15.4495L14.8833 16.3495L18.025 13.2079C18.2666 12.9662 18.6666 12.9662 18.9083 13.2079C19.15 13.4495 19.15 13.8579 18.9 14.0995Z" fill="white"/>
</svg>
