<svg width="32" height="32" viewBox="0 0 32 32" fill="none" xmlns="http://www.w3.org/2000/svg">
<rect width="32" height="32" rx="8.27273" fill="#FFA33A"/>
<path d="M15.2425 7.34398C15.5751 6.75385 16.4249 6.75385 16.7575 7.34398L18.9786 11.2846C19.1027 11.5048 19.3164 11.66 19.5642 11.71L23.9983 12.6047C24.6623 12.7387 24.9249 13.5469 24.4665 14.0456L21.4051 17.3757C21.234 17.5617 21.1524 17.813 21.1814 18.064L21.7007 22.5576C21.7785 23.2305 21.091 23.73 20.475 23.4481L16.3619 21.5656C16.1321 21.4605 15.8679 21.4605 15.6381 21.5656L11.525 23.4481C10.909 23.73 10.2215 23.2305 10.2993 22.5576L10.8186 18.064C10.8476 17.813 10.766 17.5617 10.5949 17.3757L7.53355 14.0456C7.07509 13.5469 7.33769 12.7387 8.00172 12.6047L12.4358 11.71C12.6836 11.66 12.8973 11.5048 13.0214 11.2846L15.2425 7.34398Z" fill="white"/>
</svg>
