<svg width="194" height="197" viewBox="0 0 194 197" fill="none" xmlns="http://www.w3.org/2000/svg">
<path d="M193.389 9.9248V66.2148C193.389 69.974 190.339 73.0238 186.58 73.0238H124.586C120.827 73.0238 117.781 69.974 117.781 66.2148V9.9248H193.389Z" fill="white"/>
<path d="M186.579 73.2225H124.585C120.728 73.2225 117.589 70.083 117.589 66.2219V9.93186C117.589 9.82586 117.674 9.74023 117.78 9.74023H193.388C193.494 9.74023 193.58 9.82586 193.58 9.93186V66.2219C193.58 70.083 190.44 73.2225 186.579 73.2225ZM117.972 10.1235V66.2219C117.972 69.871 120.936 72.8392 124.585 72.8392H186.583C190.232 72.8392 193.201 69.871 193.201 66.2219V10.1235H117.972Z" fill="black"/>
<path d="M193.388 9.92682V6.99938C193.388 3.24019 190.338 0.19043 186.579 0.19043H124.585C120.826 0.19043 117.776 3.23611 117.776 6.99938V9.92682H193.388Z" fill="white"/>
<path d="M193.388 10.1196H117.78C117.674 10.1196 117.589 10.034 117.589 9.92802V7.00058C117.589 3.13946 120.728 0 124.589 0H186.583C190.444 0 193.584 3.13946 193.584 7.00058V9.92802C193.58 10.0299 193.494 10.1196 193.388 10.1196ZM117.972 9.73231H193.197V6.9965C193.197 3.34739 190.228 0.379181 186.579 0.379181H124.585C120.936 0.379181 117.968 3.34739 117.968 6.9965V9.73231H117.972Z" fill="black"/>
<path d="M128.467 5.05093C128.467 6.12732 127.598 6.99577 126.53 6.99577C125.462 6.99577 124.593 6.12732 124.593 5.05093C124.593 3.9827 125.462 3.11426 126.53 3.11426C127.598 3.11426 128.467 3.9827 128.467 5.05093Z" fill="#3A9BF3"/>
<path d="M135.268 5.05093C135.268 6.12732 134.4 6.99577 133.331 6.99577C132.263 6.99577 131.395 6.12732 131.395 5.05093C131.395 3.9827 132.263 3.11426 133.331 3.11426C134.4 3.11426 135.268 3.9827 135.268 5.05093Z" fill="#75C675"/>
<path d="M142.069 5.05093C142.069 6.12732 141.201 6.99577 140.132 6.99577C139.064 6.99577 138.196 6.12732 138.196 5.05093C138.196 3.9827 139.064 3.11426 140.132 3.11426C141.201 3.11426 142.069 3.9827 142.069 5.05093Z" fill="#FFA186"/>
<path d="M167.118 60.3004V66.3225C167.118 67.1134 166.478 67.7576 165.683 67.7576H145.476C144.685 67.7576 144.041 67.1175 144.041 66.3225V60.3004C144.041 59.5094 144.681 58.8652 145.476 58.8652H165.683C166.478 58.8693 167.118 59.5094 167.118 60.3004Z" fill="#CAD5FF"/>
<path d="M165.688 67.8939H145.481C144.617 67.8939 143.911 67.1886 143.911 66.3242V60.3021C143.911 59.4378 144.617 58.7324 145.481 58.7324H165.688C166.552 58.7324 167.257 59.4378 167.257 60.3021V66.3242C167.253 67.1926 166.552 67.8939 165.688 67.8939ZM145.481 59.0056C144.763 59.0056 144.18 59.5886 144.18 60.3062V66.3283C144.18 67.0459 144.763 67.6289 145.481 67.6289H165.688C166.405 67.6289 166.988 67.0459 166.988 66.3283V60.3021C166.988 59.5846 166.405 59.0015 165.688 59.0015H145.481V59.0056Z" fill="black"/>
<path d="M126.217 66.8393C126.217 66.8393 128.011 60.3687 129.727 60.0059C131.448 59.643 130.245 67.8341 130.245 67.8341" fill="white"/>
<path d="M130.228 67.9654C130.155 67.9531 130.106 67.8879 130.114 67.8145C130.383 65.9716 130.901 61.0178 130.053 60.2227C129.967 60.1412 129.869 60.1167 129.755 60.1412C128.41 60.4266 126.836 65.0991 126.347 66.8767C126.326 66.9501 126.253 66.9909 126.179 66.9705C126.106 66.9501 126.065 66.8767 126.086 66.8033C126.159 66.5343 127.92 60.2513 129.698 59.8762C129.898 59.8354 130.085 59.8843 130.236 60.027C131.358 61.0789 130.42 67.578 130.379 67.8553C130.371 67.9246 130.302 67.9735 130.228 67.9654Z" fill="black"/>
<path d="M126.713 66.8813C126.713 66.8813 136.311 58.4007 138.285 59.0001C139.838 59.473 135.296 63.4361 133.93 64.5981C134.713 64.1863 135.357 63.8927 135.744 64.011C136.719 64.3045 135.883 65.6011 134.782 66.7468C135.333 66.5103 135.793 66.3757 136.083 66.4981C136.841 66.812 136.242 67.9699 135.165 69.0993C135.528 68.977 135.834 68.9281 136.05 69.0055C137.807 69.6416 133.102 73.3926 133.102 73.3926L130.216 75.7533" fill="white"/>
<path d="M130.114 75.8418C130.065 75.7847 130.077 75.6991 130.134 75.6543L133.021 73.2936C133.987 72.523 136.454 70.3376 136.307 69.4406C136.291 69.3509 136.246 69.2204 136.01 69.1348C135.842 69.0737 135.581 69.1063 135.21 69.2286C135.08 69.2734 134.974 69.1103 135.072 69.0084C135.908 68.1318 136.368 67.3204 136.279 66.9005C136.25 66.77 136.173 66.6803 136.03 66.6232C135.749 66.505 135.214 66.7089 134.835 66.872C134.701 66.929 134.587 66.7619 134.684 66.6559C135.63 65.6692 136.132 64.8333 136.026 64.4215C135.989 64.287 135.887 64.1932 135.704 64.1402C135.345 64.0301 134.631 64.3808 133.991 64.7151C133.93 64.7477 133.857 64.7273 133.816 64.6703C133.779 64.6132 133.787 64.5357 133.84 64.4909C136.87 61.91 138.599 59.9774 138.46 59.321C138.448 59.2598 138.411 59.1742 138.244 59.1212C136.686 58.6482 129.453 64.6295 126.799 66.9739C126.742 67.0228 126.66 67.0187 126.607 66.9617C126.559 66.9046 126.563 66.823 126.62 66.77C127.015 66.4235 136.299 58.2446 138.321 58.8602C138.603 58.9458 138.696 59.1252 138.725 59.2639C138.908 60.1486 136.829 62.228 134.778 64.0342C135.202 63.863 135.528 63.7977 135.781 63.8752C136.124 63.9771 136.242 64.1891 136.283 64.3441C136.425 64.8945 135.875 65.714 135.259 66.4112C135.647 66.2889 135.92 66.2767 136.128 66.3623C136.348 66.452 136.491 66.6151 136.536 66.8312C136.662 67.4305 136.038 68.2949 135.561 68.8453C135.777 68.8086 135.948 68.8168 136.091 68.8698C136.434 68.9921 136.536 69.2163 136.564 69.3835C136.764 70.5944 133.547 73.1957 133.18 73.4852L130.293 75.8459C130.244 75.9111 130.163 75.8989 130.114 75.8418Z" fill="black"/>
<path d="M134.391 69.825C134.342 69.772 134.342 69.6864 134.399 69.6333L135.08 69.0055C135.133 68.9565 135.218 68.9565 135.271 69.0136C135.32 69.0666 135.316 69.1522 135.263 69.2052L134.582 69.8331C134.525 69.8821 134.44 69.878 134.391 69.825Z" fill="black"/>
<path d="M134.011 67.448C133.962 67.395 133.966 67.3094 134.019 67.2564L134.7 66.6285C134.753 66.5796 134.839 66.5796 134.892 66.6367C134.941 66.6897 134.937 66.7753 134.884 66.8283L134.203 67.4562C134.146 67.5051 134.06 67.5051 134.011 67.448Z" fill="black"/>
<path d="M133.168 65.3055C133.119 65.2524 133.119 65.1668 133.176 65.1138L133.857 64.4859C133.91 64.437 133.996 64.437 134.049 64.4941C134.098 64.5471 134.094 64.6327 134.041 64.6857L133.36 65.3136C133.303 65.3625 133.217 65.3585 133.168 65.3055Z" fill="black"/>
<path d="M91.9349 21.082H88.0942C88.0331 21.082 87.976 21.0371 87.9637 20.976C87.4663 18.7661 86.3165 17.1149 84.967 16.6664C84.1149 16.385 83.2382 16.6011 82.435 17.2943C82.3657 17.3554 82.2556 17.3269 82.223 17.2413C81.269 14.8153 79.6707 13.5106 77.7095 13.5677C75.4793 13.6329 73.3184 15.5329 72.454 18.1872C72.4173 18.3013 72.2542 18.3136 72.2053 18.2035C71.7201 17.1434 71.133 16.7561 70.0811 17.3147C69.9955 17.3595 69.8935 17.3024 69.8854 17.2086C69.6815 14.8846 68.6377 13.4128 67.0272 13.164C65.1517 12.8746 62.3384 14.4524 60.6138 18.6071C60.5852 18.6724 60.5119 18.705 60.4425 18.6805C59.4192 18.3136 58.5833 18.334 57.9595 18.7417C56.9157 19.4185 56.7853 20.9474 56.7812 20.9597C56.7771 21.029 56.716 21.082 56.6466 21.082H52.4716C52.3982 21.082 52.337 21.0208 52.337 20.9474C52.337 20.8741 52.3982 20.8129 52.4716 20.8129H56.5243C56.5773 20.4093 56.826 19.1494 57.8087 18.5134C58.4855 18.0771 59.358 18.0322 60.4099 18.3829C62.1957 14.1834 65.1028 12.5892 67.0639 12.895C68.7397 13.1518 69.8772 14.6767 70.13 16.9885C71.1085 16.5441 71.7935 16.8621 72.3032 17.7998C73.2654 15.2027 75.4467 13.3679 77.7014 13.2986C79.7033 13.2415 81.4076 14.5748 82.4024 16.9722C83.2423 16.3117 84.1556 16.1159 85.0526 16.4136C86.4674 16.8825 87.6702 18.5623 88.2002 20.8129H91.9349C92.0083 20.8129 92.0695 20.8741 92.0695 20.9474C92.0695 21.0249 92.0083 21.082 91.9349 21.082Z" fill="black"/>
<path d="M181.246 123.744L168.733 116.021L156.175 123.744H181.246Z" fill="#FFAE44"/>
<path d="M181.719 123.877H155.698L168.733 115.861L181.719 123.877ZM156.648 123.608H180.769L168.729 116.179L156.648 123.608Z" fill="black"/>
<path d="M43.6034 104.121C43.6034 104.121 53.2093 118.106 63.9202 118.811C74.631 119.517 73.2244 100.77 73.2244 100.77L43.6034 104.121Z" fill="black"/>
<path d="M125.331 63.3125C103.648 79.3767 98.3481 70.0521 84.9137 63.5938L84.1431 82.1329C84.4692 82.3939 84.7954 82.6467 85.1216 82.8954C86.5201 83.9432 87.9308 84.8606 89.3578 85.6393C91.2823 86.6913 93.2393 88.2732 95.2249 88.8236C106.397 91.9386 119.762 87.9185 133.384 74.4351L125.331 63.3125Z" fill="#35D6A5"/>
<path d="M14.2561 131.919L15.6587 143.98L15.8381 145.505C15.8381 145.505 9.28195 146.838 10.1055 153.162C10.1789 153.716 10.2401 154.234 10.2809 154.719C10.289 154.801 10.2931 154.878 10.3012 154.956C10.7375 159.946 9.61628 160.957 7.01909 162.107C5.83262 162.576 4.62169 162.849 3.16205 162.878C2.46892 162.894 1.88995 162.352 1.86141 161.659L0.552628 131.206C0.52001 130.554 0.98889 129.991 1.63717 129.893C3.68801 129.587 7.98131 129.216 9.78752 131.124C10.2768 131.642 10.7538 131.981 11.2023 132.197C12.9596 133.032 14.2561 131.919 14.2561 131.919Z" fill="#35D6A5"/>
<path d="M3.41454 129.7C2.7418 129.749 2.13022 129.823 1.64095 129.896C0.996751 129.994 0.527871 130.556 0.556412 131.209L1.8652 161.666C1.89374 162.359 2.4727 162.897 3.16583 162.881C3.63063 162.872 4.20552 162.828 4.82933 162.726L3.41454 129.7Z" fill="black"/>
<path d="M66.5592 103.435H46.1935C46.7684 109.909 47.0456 119.601 44.0652 122.826C42.3364 124.697 38.5242 126.067 34.1779 127.07C31.9395 127.584 29.5625 128 27.2548 128.334C20.3154 129.341 13.9916 129.61 13.9916 129.61L16.7071 152.271C16.7071 152.271 31.9273 152.267 49.2065 147.216C53.2104 146.041 57.3284 144.598 61.3933 142.825C62.2903 142.433 63.1873 142.021 64.0802 141.597C65.8946 140.733 67.3746 139.636 68.5489 138.368C73.9185 132.591 73.1643 123.119 70.5548 114.186C69.4458 110.394 68.0066 106.704 66.5592 103.435Z" fill="white"/>
<path d="M60.5405 141.086C60.9197 141.633 61.2051 142.22 61.3967 142.823C57.3358 144.597 53.2178 146.04 49.214 147.214C48.0968 144.466 48.9898 141.217 51.5299 139.455C54.4614 137.421 58.4978 138.147 60.5405 141.086Z" fill="#FFA186"/>
<path d="M34.1812 127.074C34.8784 128.64 34.3932 130.519 32.9377 131.527C31.2946 132.668 29.0358 132.26 27.8982 130.617C27.4171 129.924 27.2133 129.117 27.2581 128.338C29.5658 128.004 31.9428 127.588 34.1812 127.074Z" fill="#FFA186"/>
<path d="M16.7105 152.412C16.6412 152.412 16.5841 152.363 16.5759 152.293L13.8605 129.632C13.8564 129.596 13.8687 129.559 13.8931 129.53C13.9176 129.502 13.9543 129.485 13.991 129.481C14.2397 129.469 38.7723 128.36 43.9707 122.738C46.9879 119.472 46.5761 109.25 46.0624 103.452C46.0542 103.375 46.1154 103.306 46.1969 103.306H66.5626C66.6156 103.306 66.6645 103.338 66.6849 103.387C68.3566 107.159 69.7021 110.783 70.6847 114.155C73.9464 125.323 73.2615 133.502 68.6501 138.463C67.431 139.78 65.9143 140.877 64.1407 141.725C42.0545 152.285 16.9592 152.412 16.7105 152.412ZM14.1418 129.742L16.8287 152.143C18.7328 152.122 42.7802 151.637 64.0225 141.481C65.7675 140.649 67.2557 139.572 68.4504 138.28C72.9964 133.391 73.661 125.298 70.4237 114.229C69.4493 110.893 68.1201 107.309 66.4729 103.575H46.3396C46.9593 110.694 47.0776 119.769 44.1624 122.921C39.0455 128.458 16.3802 129.64 14.1418 129.742Z" fill="black"/>
<path d="M21.0627 132.847L20.7965 132.887L23.6183 151.927L23.8845 151.888L21.0627 132.847Z" fill="black"/>
<path d="M14.2551 131.915L15.6577 143.975L11.2054 132.196C12.9586 133.028 14.2551 131.915 14.2551 131.915Z" fill="black"/>
<path d="M10.2848 154.717C10.8841 159.487 9.84036 160.69 7.49189 161.88C7.26764 161.995 7.1127 162.068 6.82322 162.182C6.6479 161.518 6.57859 160.816 6.63159 160.086C6.79876 157.718 8.29917 155.699 10.2848 154.717Z" fill="black"/>
<path d="M99.0739 195.287C99.0576 195.98 98.4949 196.534 97.8018 196.534H67.3205C66.6723 196.534 66.13 196.045 66.0566 195.393C65.8364 193.326 65.653 189.024 67.6345 187.304C67.8873 187.083 68.0993 186.863 68.2746 186.651C69.983 184.613 68.613 182.88 68.613 182.88H82.0678C82.0678 182.88 83.2992 188.49 89.6596 187.936C89.7942 187.923 89.9287 187.911 90.0633 187.899C95.9344 187.434 97.2065 188.405 98.2788 190.932C98.3033 190.989 98.3278 191.047 98.3522 191.104C98.9924 192.669 99.0984 194.243 99.0739 195.287Z" fill="#35D6A5"/>
<path d="M65.9385 193.618C65.9589 194.295 66.0078 194.911 66.0608 195.396C66.1301 196.044 66.6724 196.537 67.3247 196.537H97.806C98.4991 196.537 99.0618 195.983 99.0781 195.29C99.0903 194.825 99.0699 194.25 98.9925 193.618H65.9385Z" fill="black"/>
<path d="M90.7973 140.081C90.7973 150.882 84.9505 182.888 84.9505 182.888H64.8336C65.5634 177.694 65.9956 173.074 66.1954 168.916C66.3177 166.331 66.3544 163.929 66.3136 161.674C65.8896 135.645 55.7699 129.729 61.054 102.18H84.9465C84.9465 102.18 85.8353 104.903 86.9158 109.405C87.4417 111.582 88.0125 114.175 88.5507 117.082C89.7576 123.593 90.7973 131.662 90.7973 140.081Z" fill="white"/>
<path d="M88.5553 117.075L61.6498 107.795L86.2191 108.904L86.9204 109.397C87.4463 111.57 88.0171 114.168 88.5553 117.075Z" fill="black"/>
<path d="M87.8164 139.796C87.8164 143.376 84.9216 146.279 81.3377 146.279C77.7579 146.279 74.859 143.376 74.859 139.796C74.859 136.22 77.7538 133.317 81.3377 133.317C84.9216 133.321 87.8164 136.224 87.8164 139.796Z" fill="#FFA186"/>
<path d="M69.7553 165.282C69.7553 167.263 68.1693 168.874 66.1959 168.906C66.3182 166.321 66.3549 163.92 66.3142 161.665C68.2345 161.755 69.7553 163.341 69.7553 165.282Z" fill="#FFA186"/>
<path d="M72.2055 120.29C72.2055 122.292 70.5868 123.915 68.5849 123.915C66.583 123.915 64.9644 122.292 64.9644 120.29C64.9644 118.293 66.583 116.67 68.5849 116.67C70.5868 116.67 72.2055 118.293 72.2055 120.29Z" fill="#FFA186"/>
<path d="M84.9505 183.021H64.8335C64.752 183.021 64.6908 182.947 64.699 182.866C65.3921 177.941 65.8488 173.244 66.0608 168.905C66.179 166.398 66.2198 163.964 66.179 161.672C66.0037 150.9 64.1975 143.696 62.4484 136.732C59.9653 126.849 57.8248 118.311 60.9235 102.149C60.9357 102.084 60.9928 102.039 61.054 102.039H84.9464C85.0035 102.039 85.0565 102.076 85.0728 102.133C85.1299 102.312 90.9318 120.338 90.9277 140.075C90.9277 150.766 85.134 182.584 85.0769 182.907C85.0688 182.972 85.0158 183.021 84.9505 183.021ZM64.9885 182.752H84.8404C85.2155 180.672 90.6668 150.427 90.6668 140.079C90.6708 121.112 85.3052 103.735 84.8527 102.312H61.1681C58.1102 118.344 60.2426 126.837 62.7093 136.671C64.4625 143.651 66.2728 150.868 66.4481 161.672C66.4889 163.968 66.4481 166.406 66.3299 168.922C66.1219 173.219 65.6694 177.875 64.9885 182.752Z" fill="black"/>
<path d="M97.766 89.3981C93.8192 88.8803 90.8918 88.1016 88.5025 87.1923C88.3435 86.9273 91.6257 75.9678 91.6257 75.9678L97.766 89.3981Z" fill="black"/>
<path d="M91.9553 112.57C84.5878 112.159 43.6077 104.122 43.6077 104.122C43.6077 104.122 55.399 68.9482 68.022 62.5429C69.1596 61.9639 70.4276 61.6826 71.7038 61.6989C93.8186 61.9476 90.3774 68.7443 93.0439 89.6971C93.6473 94.4389 93.8716 100.6 94.2059 107.123C94.3649 110.36 93.839 112.676 91.9553 112.57Z" fill="#35D6A5"/>
<path d="M85.7044 178.116H69.4812V178.385H85.7044V178.116Z" fill="black"/>
<path d="M98.2825 190.939C95.1879 192.203 91.6081 190.919 90.0669 187.906C95.9381 187.437 97.2102 188.411 98.2825 190.939Z" fill="black"/>
<path d="M68.2783 186.651C69.9867 184.613 68.6167 182.88 68.6167 182.88H81.8921L68.2783 186.651Z" fill="black"/>
<path d="M88.6485 48.8897C87.9024 42.7984 84.6732 43.41 80.7917 43.1409C71.6139 42.5007 75.634 60.3141 75.8787 61.8349L85.1013 63.2048L83.6213 58.1246C87.8983 57.1787 88.2489 54.8914 88.6974 52.2657C89.6392 52.3105 90.418 52.3105 90.5281 51.7886C90.6463 51.2423 89.6352 49.8275 88.6485 48.8897Z" fill="white"/>
<path d="M85.0854 63.327L75.8627 61.9571C75.8057 61.9489 75.7608 61.9041 75.7486 61.847C75.7323 61.7492 75.6996 61.5861 75.6589 61.3618C73.6284 50.6999 75.1003 46.3251 76.6945 44.527C77.7016 43.3935 79.0837 42.8798 80.8043 42.998C84.6328 43.2631 88.0088 42.6759 88.7794 48.8162C89.6356 49.6439 90.8057 51.1402 90.6589 51.8048C90.5244 52.445 89.6029 52.4286 88.812 52.392C88.3716 54.9932 87.9639 57.2438 83.7929 58.2101L85.2322 63.1558C85.2607 63.2496 85.1832 63.3393 85.0854 63.327ZM76.0014 61.7043L84.9182 63.0294L83.4953 58.149C83.4749 58.0756 83.5197 57.9981 83.5972 57.9818C87.7478 57.0644 88.1229 54.8587 88.5551 52.2982L88.5673 52.2289C88.5796 52.1636 88.6326 52.1147 88.706 52.1188C89.5785 52.1595 90.3083 52.1636 90.398 51.7478C90.4918 51.3156 89.5989 49.966 88.5592 48.9752C88.5347 48.9549 88.5225 48.9263 88.5184 48.8937C87.7927 42.9654 84.7103 43.5362 80.788 43.2631C79.153 43.1489 77.8483 43.6341 76.8983 44.7023C75.3449 46.4514 73.9179 50.7529 75.928 61.3047C75.9565 61.4719 75.981 61.6065 76.0014 61.7043Z" fill="black"/>
<path d="M87.7643 45.5914C87.2791 45.7749 86.325 45.5221 85.8031 45.4895C84.5922 45.4202 77.1227 44.8005 77.6854 47.2876C78.3173 50.0886 80.1317 51.7276 76.5478 54.0965C74.1912 55.654 72.2464 53.6806 72.2464 53.6806C72.2464 53.6806 65.4823 46.0358 72.1077 45.2286C72.0466 45.2367 71.8387 44.5395 71.802 44.4824C71.5655 44.1114 70.4646 43.3408 70.8642 42.3011C71.1129 41.6528 71.8835 41.4001 72.5562 41.2288C73.229 41.0576 73.9996 40.8129 74.2524 40.1647C74.7742 38.8396 71.9487 36.4911 74.868 35.3984C75.6141 35.1171 76.45 35.2027 77.2206 35.4065C78.2684 35.6838 79.2551 36.1771 80.1072 36.8458C80.8411 37.4248 81.4772 38.1342 82.2641 38.6398C84.5555 40.1035 85.5544 38.6275 86.6022 37.2658C87.2464 36.4299 88.0619 35.7286 88.9833 35.2231C90.1984 34.5544 91.2503 34.7379 91.2951 36.3851C91.3522 38.5134 90.8018 40.658 89.7295 42.4968C89.3748 43.1084 88.2087 45.4161 87.7643 45.5914Z" fill="black"/>
<path d="M74.6889 54.8255C73.2089 54.8255 72.1651 53.7899 72.1488 53.7736C71.9857 53.5901 68.2591 49.3376 69.2214 46.8056C69.5639 45.9005 70.4608 45.3338 71.8919 45.1217C71.8552 45.032 71.684 44.5509 71.684 44.5509C71.472 44.2207 70.3059 43.3808 70.7381 42.2555C70.999 41.5705 71.7533 41.2973 72.5239 41.1016C73.2252 40.9263 73.9061 40.6817 74.1303 40.119C74.3383 39.589 74.061 38.9896 73.8164 38.4922C72.9765 36.7879 73.5921 35.7401 74.8235 35.2793C75.5003 35.0266 76.2953 35.0266 77.2576 35.2834C78.3176 35.5648 79.3329 36.0703 80.1931 36.7471C80.927 37.3261 81.5672 38.0396 82.3378 38.533C84.5435 39.9437 85.4731 38.5167 86.4965 37.1916C87.1489 36.3476 87.9847 35.6259 88.9225 35.1122C90.2313 34.3905 91.3851 34.6433 91.434 36.3884C91.4911 38.5574 90.9448 40.698 89.8521 42.5735C89.428 43.2992 88.3272 45.5213 87.8175 45.7252C87.8175 45.7252 87.8175 45.7252 87.8135 45.7252C87.3405 45.9046 86.733 45.7252 85.5588 45.6192C81.2736 45.3419 78.7294 45.6396 77.9915 46.5039C77.8039 46.72 77.7468 46.9728 77.8161 47.2664C78.444 50.0429 80.3032 51.7839 76.6215 54.218C75.9325 54.6624 75.276 54.8255 74.6889 54.8255ZM72.1203 45.3623C70.681 45.5376 69.7922 46.0554 69.4701 46.8994C68.5649 49.2805 72.3037 53.5453 72.3445 53.5901C72.4138 53.6635 74.2363 55.4616 76.4707 53.9815C79.973 51.6698 78.1831 50.1123 77.5511 47.3112C77.4655 46.932 77.543 46.5977 77.7876 46.3123C78.9944 44.8975 83.9809 45.2318 85.8075 45.3501C86.309 45.3786 87.2753 45.6273 87.7156 45.4602C88.1029 45.3052 89.322 42.9282 89.6156 42.4226C90.6675 40.6164 91.2179 38.4718 91.1609 36.3802C91.1201 34.8879 90.2353 34.68 89.0489 35.3324C88.1478 35.8298 87.3364 36.5229 86.7085 37.3424C85.9624 38.3087 84.8289 40.4329 82.191 38.7491C81.3878 38.2353 80.7558 37.5259 80.0219 36.951C79.1902 36.2946 78.2075 35.8053 77.1842 35.5362C76.2749 35.2957 75.5329 35.2916 74.9132 35.524C73.8286 35.9276 73.2863 36.8165 74.0529 38.3699C74.3342 38.9448 74.6196 39.589 74.375 40.2128C74.1099 40.8896 73.3557 41.1628 72.5851 41.3585C71.8838 41.5338 71.2029 41.7784 70.9868 42.3452C70.6239 43.2911 71.6473 43.9964 71.9123 44.4042C71.9531 44.4653 72.1162 44.9913 72.1855 45.1136C72.2833 45.1911 72.2426 45.3501 72.1203 45.3623Z" fill="black"/>
<path d="M80.3634 48.6471C80.2573 50.4533 78.7039 51.8314 76.8977 51.7254C75.0956 51.6194 73.7175 50.066 73.8276 48.2598C73.9336 46.4536 75.487 45.0755 77.2891 45.1815C79.0913 45.2875 80.4694 46.8409 80.3634 48.6471Z" fill="black"/>
<path d="M76.886 51.8561C75.9768 51.8031 75.1451 51.3953 74.5416 50.7144C73.9382 50.0336 73.6324 49.1569 73.6895 48.2477C73.8037 46.3681 75.4182 44.933 77.2938 45.043C78.203 45.096 79.0388 45.5038 79.6422 46.1847C80.2457 46.8656 80.5515 47.7422 80.4944 48.6514C80.3843 50.531 78.7656 51.9662 76.886 51.8561ZM77.0899 45.304C75.4427 45.304 74.0565 46.5924 73.9586 48.26C73.9097 49.0999 74.1869 49.9072 74.7455 50.535C75.3 51.1629 76.0706 51.534 76.9064 51.587C78.6433 51.693 80.1274 50.3679 80.2334 48.6351C80.2824 47.7952 80.0051 46.9879 79.4465 46.36C78.888 45.7321 78.1214 45.357 77.2815 45.3081C77.2163 45.3081 77.1511 45.304 77.0899 45.304Z" fill="black"/>
<path d="M77.5948 53.3669C76.3064 53.4851 75.1648 52.5392 75.0425 51.2508C74.9242 49.9624 75.8701 48.8208 77.1585 48.6985C80.2491 48.409 80.6853 53.0774 77.5948 53.3669Z" fill="white"/>
<path d="M75.7978 52.9393C75.2881 52.5152 74.9742 51.92 74.913 51.2594C74.7866 49.8936 75.7855 48.6867 77.1514 48.5603C79.3327 48.3565 80.7027 50.9088 79.2879 52.6131C78.4153 53.6691 76.8538 53.8159 75.7978 52.9393ZM77.1759 48.8294C75.9609 48.9436 75.0679 50.02 75.1821 51.235C75.2351 51.8221 75.5164 52.3521 75.9731 52.7313C76.9149 53.5101 78.3052 53.3837 79.084 52.4418C80.3357 50.9292 79.1248 48.65 77.1759 48.8294Z" fill="black"/>
<path d="M86.2879 48.6959C86.3205 49.0343 86.0718 49.3319 85.7375 49.3645C85.399 49.3972 85.1014 49.1485 85.0688 48.81C85.0362 48.4757 85.2849 48.1781 85.6233 48.1455C85.9576 48.1128 86.2553 48.3615 86.2879 48.6959Z" fill="black"/>
<path d="M83.8621 47.6961C83.8621 47.6961 84.9018 46.1264 86.6957 47.1946L83.8621 47.6961Z" fill="white"/>
<path d="M83.7848 47.8021C83.7237 47.7613 83.7074 47.6757 83.7481 47.6146C83.7604 47.5983 84.8816 45.9511 86.7653 47.0723C86.8305 47.109 86.8509 47.1946 86.8142 47.2558C86.7775 47.321 86.6919 47.3414 86.6307 47.3006C84.9632 46.3098 84.0172 47.7002 83.9765 47.7613C83.9316 47.8307 83.846 47.8429 83.7848 47.8021Z" fill="black"/>
<path d="M84.9338 53.8281C84.9338 53.8281 86.4873 55.1818 88.1467 54.5009L84.9338 53.8281Z" fill="white"/>
<path d="M84.8438 53.9299C84.7868 53.881 84.7827 53.7954 84.8316 53.7424C84.8805 53.6853 84.9662 53.6812 85.0232 53.7302C85.0395 53.7424 86.5318 55.0186 88.0974 54.3784C88.1668 54.3499 88.2442 54.3825 88.2728 54.4518C88.3013 54.5211 88.2687 54.5986 88.1994 54.6272C87.0333 55.1001 85.696 54.6679 84.8438 53.9299Z" fill="black"/>
<path d="M85.9701 64.5656L85.86 63.9825C85.652 62.898 84.8447 62.0336 83.7806 61.7482L75.5242 59.5587C74.7699 59.359 73.9871 59.7748 73.7303 60.5128L73.2491 61.9072L85.9701 64.5656Z" fill="#35D6A5"/>
<path d="M83.6253 58.1175L80.5796 58.04L84.2654 60.3233L83.6253 58.1175Z" fill="black"/>
<path d="M84.1964 60.4384L80.5105 58.1511C80.3964 58.0777 80.4453 57.8983 80.5839 57.9024L83.6255 57.984C83.6826 57.984 83.7356 58.0247 83.7519 58.0818L84.3961 60.2876C84.4288 60.4058 84.3024 60.5037 84.1964 60.4384ZM81.0732 58.1878L84.0414 60.0266L83.5236 58.249L81.0732 58.1878Z" fill="black"/>
<path d="M177.345 158.994H121.006C119.029 158.994 117.259 157.669 116.709 155.769L107.405 123.787C107.392 123.747 107.4 123.702 107.425 123.669C107.449 123.637 107.49 123.616 107.531 123.616H184.55C187.501 123.616 189.646 126.421 188.867 129.271L181.659 155.7C181.133 157.636 179.359 158.994 177.345 158.994ZM107.714 123.881L116.97 155.692C117.487 157.477 119.151 158.725 121.01 158.725H177.349C179.241 158.725 180.909 157.449 181.406 155.626L188.615 129.198C189.344 126.523 187.334 123.885 184.558 123.885H107.714V123.881Z" fill="black"/>
<path d="M137.209 158.991C137.152 158.991 137.099 158.955 137.079 158.894L126.865 123.785C126.845 123.715 126.886 123.638 126.955 123.618C127.028 123.597 127.102 123.638 127.122 123.707L137.335 158.816C137.356 158.885 137.315 158.963 137.246 158.983C137.233 158.987 137.221 158.991 137.209 158.991Z" fill="black"/>
<path d="M145.302 194.389H139.961C138.257 194.389 136.757 193.297 136.235 191.674L125.703 158.893C125.679 158.824 125.72 158.746 125.789 158.726C125.862 158.701 125.936 158.742 125.956 158.812L136.487 191.592C136.973 193.105 138.367 194.12 139.957 194.12H145.298C145.372 194.12 145.433 194.181 145.433 194.255C145.437 194.328 145.38 194.389 145.302 194.389Z" fill="black"/>
<path d="M176.235 194.389H170.727C169.023 194.389 167.522 193.297 167 191.674L156.469 158.893C156.445 158.824 156.485 158.746 156.555 158.726C156.628 158.701 156.701 158.742 156.722 158.812L167.253 191.592C167.738 193.105 169.133 194.12 170.723 194.12H176.231C176.305 194.12 176.366 194.181 176.366 194.255C176.37 194.328 176.313 194.389 176.235 194.389Z" fill="black"/>
<path d="M181.438 194.251C181.438 195.69 180.272 196.856 178.833 196.856C177.394 196.856 176.228 195.69 176.228 194.251C176.228 192.812 177.394 191.646 178.833 191.646C180.272 191.646 181.438 192.812 181.438 194.251Z" fill="#35D6A5"/>
<path d="M185.035 194.389H179.526C177.822 194.389 176.322 193.297 175.8 191.674L165.268 158.893C165.244 158.824 165.285 158.746 165.354 158.726C165.427 158.701 165.501 158.742 165.521 158.812L176.053 191.592C176.538 193.105 177.932 194.12 179.522 194.12H185.031C185.104 194.12 185.165 194.181 185.165 194.255C185.169 194.328 185.108 194.389 185.035 194.389Z" fill="black"/>
<path d="M190.238 194.251C190.238 195.69 189.071 196.856 187.632 196.856C186.193 196.856 185.027 195.69 185.027 194.251C185.027 192.812 186.193 191.646 187.632 191.646C189.071 191.646 190.238 192.812 190.238 194.251Z" fill="#CAD5FF"/>
<path d="M150.518 194.251C150.518 195.69 149.352 196.856 147.912 196.856C146.473 196.856 145.307 195.69 145.307 194.251C145.307 192.812 146.473 191.646 147.912 191.646C149.352 191.646 150.518 192.812 150.518 194.251Z" fill="#35D6A5"/>
<path d="M154.595 194.388H149.254C147.55 194.388 146.049 193.296 145.527 191.673L134.996 158.892C134.971 158.823 135.012 158.745 135.081 158.725C135.155 158.7 135.228 158.741 135.249 158.811L145.78 191.591C146.265 193.104 147.66 194.119 149.25 194.119H154.591C154.664 194.119 154.725 194.18 154.725 194.254C154.73 194.327 154.668 194.388 154.595 194.388Z" fill="black"/>
<path d="M159.805 194.253C159.805 195.692 158.639 196.858 157.2 196.858C155.761 196.858 154.594 195.692 154.594 194.253C154.594 192.814 155.761 191.647 157.2 191.647C158.639 191.647 159.805 192.814 159.805 194.253Z" fill="#CAD5FF"/>
<path d="M172.624 132.297V149.6C172.624 150.599 171.813 151.415 170.81 151.415C169.811 151.415 168.995 150.603 168.995 149.6V132.297C168.995 131.294 169.807 130.482 170.81 130.482C171.813 130.486 172.624 131.298 172.624 132.297Z" fill="#35D6A5"/>
<path d="M163.805 132.297V149.6C163.805 150.599 162.993 151.415 161.99 151.415C160.991 151.415 160.176 150.603 160.176 149.6V132.297C160.176 131.294 160.987 130.482 161.99 130.482C162.993 130.486 163.805 131.298 163.805 132.297Z" fill="#35D6A5"/>
<path d="M154.986 132.297V149.6C154.986 150.599 154.174 151.415 153.171 151.415C152.168 151.415 151.357 150.603 151.357 149.6V132.297C151.357 131.294 152.168 130.482 153.171 130.482C154.174 130.486 154.986 131.298 154.986 132.297Z" fill="#35D6A5"/>
<path d="M146.168 132.297V149.6C146.168 150.599 145.356 151.415 144.353 151.415C143.354 151.415 142.539 150.603 142.539 149.6V132.297C142.539 131.294 143.35 130.482 144.353 130.482C145.356 130.486 146.168 131.298 146.168 132.297Z" fill="#35D6A5"/>
<path d="M126.997 123.874H107.536C107.483 123.874 107.434 123.841 107.414 123.793L101.229 109.563C100.36 107.569 101.824 105.335 104.001 105.335H117.599C118.83 105.335 119.931 106.073 120.396 107.215L127.127 123.691C127.156 123.776 127.09 123.874 126.997 123.874ZM107.622 123.605H126.797L120.139 107.316C119.715 106.277 118.716 105.604 117.59 105.604H103.993C102.015 105.604 100.678 107.635 101.469 109.453L107.622 123.605Z" fill="black"/>
<path d="M143.274 118.215V123.744H128.727V118.215C128.727 117.864 129.008 117.583 129.359 117.583H142.642C142.989 117.583 143.274 117.864 143.274 118.215Z" fill="#35D6A5"/>
<path d="M143.406 123.881H128.589V118.218C128.589 117.794 128.932 117.451 129.356 117.451H142.639C143.063 117.451 143.406 117.794 143.406 118.218V123.881ZM128.858 123.612H143.137V118.218C143.137 117.945 142.912 117.72 142.639 117.72H129.356C129.083 117.72 128.858 117.945 128.858 118.218V123.612Z" fill="black"/>
<path d="M162.723 114.188V123.745H140.038V114.188C140.038 113.646 140.478 113.201 141.025 113.201H161.741C162.283 113.205 162.723 113.646 162.723 114.188Z" fill="#CAD5FF"/>
<path d="M162.857 123.875H139.903V114.184C139.903 113.568 140.404 113.062 141.024 113.062H161.74C162.356 113.062 162.862 113.564 162.862 114.184V123.875H162.857ZM140.172 123.606H162.588V114.184C162.588 113.715 162.205 113.332 161.736 113.332H141.02C140.551 113.332 140.168 113.715 140.168 114.184V123.606H140.172Z" fill="black"/>
<path d="M116.18 105.481C116.18 105.901 115.841 106.239 115.421 106.239H105.412C104.992 106.239 104.653 105.901 104.653 105.481C104.653 105.061 104.992 104.723 105.412 104.723H115.421C115.841 104.723 116.18 105.061 116.18 105.481Z" fill="#CAD5FF"/>
<path d="M115.421 106.368H105.411C104.918 106.368 104.518 105.968 104.518 105.475C104.518 104.982 104.918 104.582 105.411 104.582H115.421C115.914 104.582 116.314 104.982 116.314 105.475C116.314 105.968 115.914 106.368 115.421 106.368ZM105.411 104.855C105.069 104.855 104.787 105.132 104.787 105.479C104.787 105.822 105.065 106.103 105.411 106.103H115.421C115.763 106.103 116.044 105.826 116.044 105.479C116.044 105.137 115.767 104.855 115.421 104.855H105.411Z" fill="black"/>
<path d="M101.435 99.8252C101.977 98.5898 105.276 96.7061 105.793 97.3095C106.401 98.019 103.176 100.934 105.312 101.012C107.967 101.35 110.662 101.513 110.89 102.227C111.167 103.087 108.138 102.871 106.878 102.736C109.532 103.075 111.053 103.14 111.041 103.858C111.029 104.571 109.218 104.75 107.962 104.616C109.838 104.905 110.878 105.174 110.812 105.611C110.698 106.385 108.713 106.389 107.453 106.255C108.619 106.5 109.822 106.679 109.63 107.156C109.177 108.285 100.925 106.94 100.925 106.94L101.435 99.8252Z" fill="white"/>
<path d="M107.485 107.733C105.173 107.733 101.821 107.215 100.9 107.064C100.831 107.052 100.782 106.991 100.786 106.921C101.324 99.4765 101.291 99.8027 101.308 99.7619C101.768 98.7141 104.08 97.2381 105.242 97.0669C105.552 97.022 105.768 97.0709 105.891 97.2136C106.2 97.5765 105.809 98.2289 105.361 98.9913C104.989 99.6192 104.565 100.333 104.741 100.651C104.814 100.781 105.006 100.855 105.312 100.867C108.21 101.234 110.755 101.372 111.012 102.176C111.06 102.326 111.036 102.469 110.942 102.583C110.759 102.808 110.298 102.922 109.727 102.967C110.677 103.138 111.179 103.362 111.171 103.851C111.158 104.487 110.131 104.687 109.499 104.748C110.494 104.969 110.999 105.221 110.938 105.621C110.848 106.237 109.87 106.412 108.957 106.44C109.364 106.559 109.629 106.685 109.731 106.877C109.784 106.975 109.788 107.085 109.744 107.195C109.593 107.594 108.679 107.733 107.485 107.733ZM101.063 106.82C104.223 107.325 109.205 107.835 109.503 107.097C109.519 107.052 109.511 107.028 109.503 107.003C109.377 106.771 108.537 106.599 107.799 106.453L107.424 106.375C107.354 106.359 107.305 106.294 107.318 106.224C107.33 106.155 107.395 106.102 107.464 106.11C108.997 106.273 110.592 106.143 110.677 105.58C110.738 105.172 108.704 104.858 107.937 104.74C107.864 104.728 107.815 104.663 107.823 104.589C107.831 104.516 107.901 104.463 107.97 104.471C109.006 104.581 110.339 104.467 110.771 104.084C110.857 104.01 110.897 103.929 110.901 103.843C110.91 103.346 109.711 103.203 107.897 102.987C107.57 102.946 107.224 102.905 106.857 102.861C106.783 102.852 106.73 102.783 106.739 102.71C106.747 102.636 106.816 102.583 106.885 102.591C108.953 102.812 110.461 102.742 110.73 102.412C110.767 102.367 110.775 102.318 110.755 102.257C110.555 101.633 107.566 101.425 105.287 101.136C104.883 101.124 104.623 101.005 104.5 100.781C104.252 100.329 104.676 99.6111 105.124 98.8568C105.471 98.2696 105.866 97.6091 105.679 97.393C105.621 97.3278 105.475 97.3074 105.275 97.336C104.203 97.495 102.001 98.8894 101.556 99.8557L101.063 106.82Z" fill="black"/>
<path d="M94.1444 109.272C55.5373 105.26 66.2074 74.2246 66.2074 74.2246C65.3593 82.8398 66.399 86.7172 67.4224 90.3582C68.3438 93.6444 70.7331 96.5474 72.9674 99.2302C73.3996 99.748 73.9418 100.262 74.5779 100.775C78.8997 104.253 101.275 110.014 94.1444 109.272Z" fill="black"/>
<path d="M102.653 96.5637L100.618 110.569C93.3853 109.668 80.3871 105.456 74.573 100.775C73.9411 100.266 73.4029 99.7521 72.9666 99.2343C70.7282 96.5474 68.339 93.6444 67.4175 90.3582C66.3982 86.7172 65.3545 82.8438 66.2025 74.2246H81.3249C78.161 88.4908 87.1431 92.6292 102.653 96.5637Z" fill="#35D6A5"/>
<path d="M100.618 110.698C100.614 110.698 100.606 110.698 100.602 110.698C93.728 109.841 80.4689 105.691 74.4917 100.876C73.8475 100.354 73.2971 99.8318 72.8649 99.314C70.6917 96.7046 68.2332 93.7486 67.2913 90.389C66.3169 86.907 65.2079 82.9644 66.0722 74.2065C66.0804 74.1331 66.1456 74.0801 66.219 74.0842C66.2924 74.0924 66.3454 74.1576 66.3413 74.231C65.481 82.9358 66.5819 86.8581 67.5482 90.3156C68.4737 93.6181 70.916 96.5537 73.0687 99.1428C73.4887 99.6443 74.0228 100.158 74.6548 100.668C80.5586 105.422 93.622 109.527 100.5 110.416L102.498 96.6597C94.6576 94.666 88.6641 92.6559 84.8967 89.3656C80.8562 85.8347 79.682 81.0155 81.1946 74.1902C81.2109 74.1168 81.2843 74.072 81.3536 74.0883C81.427 74.1046 81.4719 74.178 81.4556 74.2473C78.4547 87.7673 85.9079 92.1707 102.682 96.4273C102.747 96.4436 102.792 96.5089 102.783 96.5782L100.749 110.583C100.741 110.649 100.684 110.698 100.618 110.698Z" fill="black"/>
<path d="M87.6457 103.524C87.5968 103.467 87.6008 103.382 87.6579 103.333L97.2068 94.9948C97.2638 94.9459 97.3495 94.95 97.3984 95.007C97.4473 95.0641 97.4432 95.1497 97.3862 95.1987L87.8373 103.537C87.7802 103.586 87.6946 103.581 87.6457 103.524Z" fill="black"/>
<path d="M96.6446 106.96C95.825 106.96 95.1564 106.295 95.1564 105.475C95.1564 104.656 95.825 103.987 96.6446 103.987C97.4641 103.987 98.1287 104.656 98.1287 105.475C98.1287 106.295 97.4641 106.96 96.6446 106.96ZM96.6446 104.26C95.9718 104.26 95.4255 104.807 95.4255 105.48C95.4255 106.148 95.9718 106.695 96.6446 106.695C97.3132 106.695 97.8596 106.148 97.8596 105.48C97.8596 104.807 97.3132 104.26 96.6446 104.26Z" fill="black"/>
<path d="M55.8147 197H43.685C43.6116 197 43.5504 196.938 43.5504 196.865C43.5504 196.792 43.6116 196.73 43.685 196.73H55.8147C55.8881 196.73 55.9492 196.792 55.9492 196.865C55.9492 196.938 55.8881 197 55.8147 197Z" fill="black"/>
<path d="M34.2505 197H22.1208C22.0474 197 21.9862 196.938 21.9862 196.865C21.9862 196.792 22.0474 196.73 22.1208 196.73H34.2505C34.3239 196.73 34.385 196.792 34.385 196.865C34.385 196.938 34.3239 197 34.2505 197Z" fill="black"/>
<path d="M12.686 197H0.55624C0.48285 197 0.421692 196.938 0.421692 196.865C0.421692 196.792 0.48285 196.73 0.55624 196.73H12.686C12.7593 196.73 12.8205 196.792 12.8205 196.865C12.8205 196.938 12.7593 197 12.686 197Z" fill="black"/>
<path d="M55.8065 197H43.6768C43.6034 197 43.5422 196.938 43.5422 196.865C43.5422 196.792 43.6034 196.73 43.6768 196.73H55.8065C55.8799 196.73 55.941 196.792 55.941 196.865C55.941 196.938 55.8799 197 55.8065 197Z" fill="black"/>
<path d="M120.471 197H108.341C108.268 197 108.207 196.938 108.207 196.865C108.207 196.792 108.268 196.73 108.341 196.73H120.471C120.545 196.73 120.606 196.792 120.606 196.865C120.606 196.938 120.549 197 120.471 197Z" fill="black"/>
<path d="M192.365 197H129.902C129.829 197 129.767 196.938 129.767 196.865C129.767 196.792 129.829 196.73 129.902 196.73H192.365C192.438 196.73 192.499 196.792 192.499 196.865C192.499 196.938 192.438 197 192.365 197Z" fill="black"/>
<path d="M36.6396 55.957C35.1514 54.8154 34.8864 52.683 36.0647 51.1826C37.2349 49.6944 39.3999 49.409 40.884 50.5506C40.9411 50.5955 40.9533 50.6811 40.9084 50.7382C40.8636 50.7953 40.778 50.8075 40.7209 50.7626C39.3509 49.7107 37.3531 49.9757 36.2767 51.3457C35.1881 52.7279 35.4368 54.6931 36.8027 55.7409C36.8598 55.7858 36.872 55.8714 36.8271 55.9285C36.7823 55.9896 36.7008 56.0019 36.6396 55.957Z" fill="black"/>
<path d="M181.156 102.137C181.103 102.088 181.099 102.003 181.148 101.946C181.196 101.893 181.282 101.889 181.339 101.938C182.603 103.091 184.585 103.026 185.767 101.73C186.933 100.449 186.839 98.4556 185.559 97.2936C185.506 97.2447 185.502 97.1591 185.551 97.102C185.6 97.049 185.686 97.0449 185.743 97.0939C187.129 98.3578 187.231 100.519 185.967 101.913C184.715 103.279 182.566 103.426 181.156 102.137Z" fill="black"/>
<path d="M21.0279 111.851C20.0697 110.236 20.6079 108.14 22.2225 107.178C23.8371 106.216 25.9246 106.742 26.8868 108.364C26.9235 108.43 26.9031 108.511 26.8379 108.548C26.7727 108.585 26.6911 108.564 26.6544 108.499C25.7697 107.007 23.8493 106.518 22.3611 107.406C20.8729 108.291 20.3796 110.224 21.2603 111.712C21.297 111.777 21.2766 111.859 21.2113 111.895C21.1502 111.936 21.0686 111.912 21.0279 111.851Z" fill="black"/>
<path d="M18.4594 42.2224L13.1901 49.0693L20.037 54.3386L25.3063 47.4917L18.4594 42.2224Z" fill="#76C4FF"/>
<path d="M17.8053 39.3026L9.16565 39.3457L9.20874 47.9853L17.8484 47.9422L17.8053 39.3026Z" fill="#FFA186"/>
<path d="M142.071 27.3647V20.5546H148.881C149.701 20.5546 149.699 19.3164 148.881 19.3164H141.452C141.288 19.3164 141.13 19.3816 141.014 19.4977C140.898 19.6138 140.833 19.7713 140.833 19.9355V27.3647C140.833 28.1843 142.071 28.1831 142.071 27.3647ZM148.881 47.7973H142.071V40.9873C142.071 40.1676 140.833 40.1688 140.833 40.9873V48.4164C140.833 48.5806 140.898 48.7381 141.014 48.8542C141.13 48.9703 141.288 49.0355 141.452 49.0355H148.881C149.701 49.0355 149.699 47.7973 148.881 47.7973ZM170.549 19.9355C170.549 19.7713 170.484 19.6138 170.368 19.4977C170.252 19.3816 170.094 19.3164 169.93 19.3164H162.501C161.681 19.3164 161.683 20.5546 162.501 20.5546H169.311V27.3647C169.311 28.1843 170.549 28.1831 170.549 27.3647V19.9355ZM169.311 40.9873V47.7973H162.501C161.681 47.7973 161.683 49.0355 162.501 49.0355H169.93C170.094 49.0355 170.252 48.9703 170.368 48.8542C170.484 48.7381 170.549 48.5806 170.549 48.4164V40.9873C170.549 40.1676 169.311 40.1688 169.311 40.9873ZM147.024 27.3647C147.024 27.5289 147.089 27.6863 147.205 27.8024C147.321 27.9185 147.479 27.9838 147.643 27.9838H148.881C149.045 27.9838 149.203 27.9185 149.319 27.8024C149.435 27.6863 149.5 27.5289 149.5 27.3647V26.1265C149.5 25.9623 149.435 25.8048 149.319 25.6887C149.203 25.5726 149.045 25.5074 148.881 25.5074H147.643C147.479 25.5074 147.321 25.5726 147.205 25.6887C147.089 25.8048 147.024 25.9623 147.024 26.1265V27.3647Z" fill="black"/>
<path d="M145.167 23.0312C145.003 23.0312 144.845 23.0965 144.729 23.2126C144.613 23.3287 144.548 23.4862 144.548 23.6503V29.8413C144.548 30.0055 144.613 30.163 144.729 30.2791C144.845 30.3952 145.003 30.4604 145.167 30.4604H151.358C151.522 30.4604 151.679 30.3952 151.795 30.2791C151.912 30.163 151.977 30.0055 151.977 29.8413V23.6503C151.977 23.4862 151.912 23.3287 151.795 23.2126C151.679 23.0965 151.522 23.0312 151.358 23.0312H145.167ZM145.786 24.2694H150.739V29.2222H145.786V24.2694ZM149.5 40.985C149.5 40.8209 149.435 40.6634 149.319 40.5473C149.203 40.4312 149.045 40.3659 148.881 40.3659H147.643C147.479 40.3659 147.321 40.4312 147.205 40.5473C147.089 40.6634 147.024 40.8209 147.024 40.985V42.2232C147.024 42.3874 147.089 42.5449 147.205 42.661C147.321 42.7771 147.479 42.8423 147.643 42.8423H148.881C149.045 42.8423 149.203 42.7771 149.319 42.661C149.435 42.5449 149.5 42.3874 149.5 42.2232V40.985Z" fill="black"/>
<path d="M151.977 38.5088C151.977 38.3446 151.912 38.1872 151.795 38.0711C151.679 37.955 151.522 37.8897 151.358 37.8897H145.167C145.003 37.8897 144.845 37.955 144.729 38.0711C144.613 38.1872 144.548 38.3446 144.548 38.5088V44.6998C144.548 44.864 144.613 45.0215 144.729 45.1376C144.845 45.2537 145.003 45.3189 145.167 45.3189H151.358C151.522 45.3189 151.679 45.2537 151.795 45.1376C151.912 45.0215 151.977 44.864 151.977 44.6998V38.5088ZM150.739 44.0807H145.786V39.1279H150.739V44.0807ZM161.882 27.3651C161.882 27.5293 161.948 27.6868 162.064 27.8029C162.18 27.919 162.337 27.9842 162.501 27.9842H163.74C163.904 27.9842 164.061 27.919 164.177 27.8029C164.293 27.6868 164.359 27.5293 164.359 27.3651V26.1269C164.359 25.9627 164.293 25.8052 164.177 25.6891C164.061 25.573 163.904 25.5078 163.74 25.5078H162.501C162.337 25.5078 162.18 25.573 162.064 25.6891C161.948 25.8052 161.882 25.9627 161.882 26.1269V27.3651Z" fill="black"/>
<path d="M159.406 29.8413C159.406 30.0055 159.471 30.163 159.587 30.2791C159.703 30.3952 159.861 30.4604 160.025 30.4604H166.216C166.38 30.4604 166.538 30.3952 166.654 30.2791C166.77 30.163 166.835 30.0055 166.835 29.8413V23.6503C166.835 23.4862 166.77 23.3287 166.654 23.2126C166.538 23.0965 166.38 23.0312 166.216 23.0312H160.025C159.861 23.0312 159.703 23.0965 159.587 23.2126C159.471 23.3287 159.406 23.4862 159.406 23.6503V29.8413ZM160.644 24.2694H165.597V29.2222H160.644V24.2694ZM148.881 36.6514H153.834C154.654 36.6514 154.653 35.4132 153.834 35.4132H151.977V33.5559C151.977 32.7362 150.739 32.7374 150.739 33.5559V35.4132H148.881C148.062 35.4132 148.063 36.6514 148.881 36.6514ZM154.453 24.8885V23.6503C154.453 22.8307 153.215 22.8319 153.215 23.6503V24.8885C153.215 25.7082 154.453 25.707 154.453 24.8885ZM153.834 27.984H156.31C156.475 27.984 156.632 27.9188 156.748 27.8027C156.864 27.6866 156.93 27.5291 156.93 27.3649V25.5076H157.549C158.368 25.5076 158.367 24.2694 157.549 24.2694H156.31C156.146 24.2694 155.989 24.3347 155.873 24.4508C155.757 24.5669 155.691 24.7243 155.691 24.8885V26.7458H153.834C153.014 26.7458 153.016 27.984 153.834 27.984ZM153.834 34.175H156.31C157.13 34.175 157.129 32.9368 156.31 32.9368H155.691V30.4604H157.549C158.368 30.4604 158.367 29.2222 157.549 29.2222H155.072C154.908 29.2222 154.751 29.2874 154.634 29.4035C154.518 29.5196 154.453 29.6771 154.453 29.8413V32.9368H153.834C153.014 32.9368 153.016 34.175 153.834 34.175ZM158.168 33.5559C158.168 34.3756 159.406 34.3743 159.406 33.5559V32.3177C159.406 31.498 158.168 31.4993 158.168 32.3177V33.5559ZM154.453 40.366H155.691V40.985C155.691 41.8047 156.93 41.8035 156.93 40.985V37.2705C156.93 36.4508 155.691 36.452 155.691 37.2705V39.1278H153.834C153.67 39.1278 153.512 39.193 153.396 39.3091C153.28 39.4252 153.215 39.5827 153.215 39.7469V40.985C153.215 41.8047 154.453 41.8035 154.453 40.985V40.366ZM159.406 40.985V41.6041H158.787C158.623 41.6041 158.465 41.6694 158.349 41.7855C158.233 41.9016 158.168 42.059 158.168 42.2232V44.0805H155.072C154.253 44.0805 154.254 45.3187 155.072 45.3187H158.787C158.951 45.3187 159.108 45.2535 159.225 45.1374C159.341 45.0213 159.406 44.8638 159.406 44.6996V42.8423H160.025C160.189 42.8423 160.347 42.7771 160.463 42.661C160.579 42.5449 160.644 42.3874 160.644 42.2232V40.985C160.644 40.1654 159.406 40.1666 159.406 40.985ZM163.121 42.2232V44.0805H162.501C161.682 44.0805 161.683 45.3187 162.501 45.3187H166.216C167.036 45.3187 167.034 44.0805 166.216 44.0805H164.359V42.2232C164.359 41.4036 163.121 41.4048 163.121 42.2232ZM166.835 38.5087C166.835 38.3445 166.77 38.187 166.654 38.0709C166.538 37.9548 166.38 37.8896 166.216 37.8896H162.501C161.682 37.8896 161.683 39.1278 162.501 39.1278H165.597V40.9875C165.597 41.8072 166.835 41.806 166.835 40.9875V38.5087ZM166.835 33.5559C166.835 32.7362 165.597 32.7374 165.597 33.5559V35.4132H164.978C164.158 35.4132 164.159 36.6514 164.978 36.6514H166.216C166.38 36.6514 166.538 36.5861 166.654 36.47C166.77 36.3539 166.835 36.1965 166.835 36.0323V33.5559ZM163.121 36.0323V32.9368H163.74C164.559 32.9368 164.558 31.6986 163.74 31.6986H162.501C162.337 31.6986 162.18 31.7638 162.064 31.8799C161.948 31.996 161.882 32.1535 161.882 32.3177V35.4132H160.025C159.861 35.4132 159.703 35.4784 159.587 35.5945C159.471 35.7106 159.406 35.8681 159.406 36.0323V37.8896H158.787C157.967 37.8896 157.968 39.1278 158.787 39.1278H160.025C160.189 39.1278 160.347 39.0625 160.463 38.9464C160.579 38.8303 160.644 38.6729 160.644 38.5087V36.6514H162.501C162.666 36.6514 162.823 36.5861 162.939 36.47C163.055 36.3539 163.121 36.1965 163.121 36.0323ZM144.548 32.3177V36.0323C144.548 36.852 145.786 36.8507 145.786 36.0323V34.175H147.643C148.463 34.175 148.462 32.9368 147.643 32.9368H145.786V32.3177C145.786 31.498 144.548 31.4993 144.548 32.3177Z" fill="black"/>
<path d="M151.645 64.9579C151.458 64.9579 151.292 64.9319 151.146 64.8799C151 64.8279 150.861 64.7421 150.729 64.6225C150.7 64.6017 150.678 64.577 150.662 64.5484C150.649 64.5172 150.643 64.486 150.643 64.4548C150.643 64.4054 150.661 64.3612 150.697 64.3222C150.734 64.2832 150.779 64.2637 150.834 64.2637C150.876 64.2637 150.915 64.278 150.951 64.3066C151.05 64.3976 151.152 64.4665 151.259 64.5133C151.368 64.5601 151.496 64.5835 151.641 64.5835C151.745 64.5835 151.84 64.5666 151.926 64.5328C152.014 64.499 152.085 64.4535 152.137 64.3963C152.189 64.3391 152.215 64.2728 152.215 64.1974C152.215 64.1038 152.187 64.0271 152.133 63.9673C152.081 63.9049 152.004 63.8542 151.903 63.8152C151.804 63.7736 151.684 63.7385 151.544 63.7099C151.414 63.6864 151.297 63.6539 151.193 63.6123C151.091 63.5707 151.004 63.5187 150.931 63.4563C150.859 63.3913 150.803 63.3146 150.764 63.2262C150.725 63.1378 150.705 63.0351 150.705 62.9181C150.705 62.7595 150.747 62.623 150.83 62.5086C150.913 62.3941 151.026 62.3057 151.169 62.2433C151.312 62.1809 151.474 62.1497 151.653 62.1497C151.817 62.1497 151.97 62.1757 152.113 62.2277C152.256 62.2771 152.372 62.3447 152.46 62.4305C152.523 62.4852 152.554 62.5437 152.554 62.6061C152.554 62.6529 152.534 62.6971 152.495 62.7387C152.459 62.7777 152.416 62.7972 152.367 62.7972C152.33 62.7972 152.299 62.7868 152.273 62.766C152.232 62.7218 152.176 62.6828 152.105 62.649C152.035 62.6126 151.96 62.5827 151.879 62.5593C151.801 62.5359 151.726 62.5242 151.653 62.5242C151.536 62.5242 151.436 62.5411 151.353 62.5749C151.269 62.6061 151.206 62.6503 151.162 62.7075C151.117 62.7621 151.095 62.8271 151.095 62.9025C151.095 62.9909 151.12 63.0637 151.169 63.1209C151.221 63.1781 151.293 63.2249 151.384 63.2613C151.475 63.2951 151.579 63.3263 151.696 63.3549C151.839 63.3861 151.966 63.4212 152.078 63.4602C152.193 63.4992 152.289 63.5499 152.367 63.6123C152.445 63.6721 152.505 63.7476 152.546 63.8386C152.588 63.9296 152.609 64.0427 152.609 64.1779C152.609 64.3339 152.564 64.4704 152.476 64.5874C152.388 64.7044 152.271 64.7954 152.125 64.8604C151.982 64.9254 151.822 64.9579 151.645 64.9579ZM155.027 62.3447C155.084 62.3733 155.116 62.4175 155.124 62.4774C155.135 62.5372 155.12 62.5918 155.081 62.6412C155.053 62.6802 155.015 62.7023 154.968 62.7075C154.924 62.7127 154.88 62.7036 154.836 62.6802C154.76 62.6412 154.681 62.61 154.598 62.5866C154.514 62.5632 154.426 62.5515 154.332 62.5515C154.184 62.5515 154.05 62.5762 153.931 62.6256C153.814 62.6724 153.712 62.7413 153.626 62.8323C153.541 62.9207 153.474 63.026 153.428 63.1482C153.383 63.2704 153.361 63.4056 153.361 63.5538C153.361 63.7177 153.386 63.8633 153.435 63.9907C153.485 64.1155 153.552 64.2221 153.638 64.3105C153.727 64.3963 153.829 64.4613 153.946 64.5055C154.066 64.5471 154.195 64.5679 154.332 64.5679C154.421 64.5679 154.507 64.5575 154.59 64.5367C154.676 64.5159 154.756 64.4847 154.832 64.4431C154.878 64.4197 154.924 64.4119 154.968 64.4197C155.015 64.4249 155.053 64.447 155.081 64.486C155.125 64.5406 155.141 64.5965 155.128 64.6537C155.118 64.7083 155.085 64.7499 155.031 64.7785C154.966 64.8149 154.894 64.8461 154.816 64.8721C154.738 64.8981 154.659 64.9189 154.578 64.9345C154.497 64.9501 154.416 64.9579 154.332 64.9579C154.145 64.9579 153.968 64.9267 153.802 64.8643C153.636 64.8019 153.487 64.7109 153.357 64.5913C153.227 64.4717 153.125 64.3248 153.049 64.1506C152.976 63.9764 152.94 63.7775 152.94 63.5538C152.94 63.3536 152.974 63.169 153.041 63C153.112 62.8284 153.209 62.6815 153.334 62.5593C153.461 62.4344 153.61 62.3382 153.779 62.2706C153.948 62.2004 154.132 62.1653 154.332 62.1653C154.457 62.1653 154.578 62.1809 154.695 62.2121C154.815 62.2433 154.925 62.2875 155.027 62.3447ZM156.543 62.6958L155.665 64.8019C155.65 64.8435 155.626 64.876 155.595 64.8994C155.564 64.9228 155.529 64.9345 155.49 64.9345C155.433 64.9345 155.39 64.9189 155.361 64.8877C155.332 64.8539 155.317 64.8123 155.314 64.7629C155.314 64.7447 155.318 64.7239 155.326 64.7005L156.317 62.3057C156.335 62.2615 156.361 62.2277 156.395 62.2043C156.431 62.1809 156.47 62.1705 156.512 62.1731C156.551 62.1731 156.587 62.1848 156.621 62.2082C156.655 62.2316 156.679 62.2641 156.695 62.3057L157.674 64.6654C157.684 64.6914 157.69 64.7174 157.69 64.7434C157.69 64.8006 157.67 64.8474 157.631 64.8838C157.595 64.9176 157.553 64.9345 157.506 64.9345C157.467 64.9345 157.431 64.9228 157.397 64.8994C157.366 64.8734 157.342 64.8409 157.327 64.8019L156.441 62.7075L156.543 62.6958ZM155.821 64.2481L155.997 63.8737H157.101L157.167 64.2481H155.821ZM160.118 62.1887C160.17 62.1887 160.211 62.2069 160.243 62.2433C160.276 62.2771 160.293 62.32 160.293 62.372V64.72C160.293 64.7772 160.274 64.8253 160.235 64.8643C160.198 64.9007 160.152 64.9189 160.094 64.9189C160.068 64.9189 160.04 64.9137 160.009 64.9033C159.98 64.8929 159.958 64.8786 159.942 64.8604L158.339 62.7816L158.429 62.7309V64.7395C158.429 64.7889 158.412 64.8318 158.378 64.8682C158.345 64.902 158.302 64.9189 158.25 64.9189C158.195 64.9189 158.151 64.902 158.117 64.8682C158.086 64.8318 158.07 64.7889 158.07 64.7395V62.3876C158.07 62.3278 158.09 62.2797 158.129 62.2433C158.168 62.2069 158.215 62.1887 158.269 62.1887C158.298 62.1887 158.328 62.1952 158.359 62.2082C158.393 62.2186 158.417 62.2355 158.433 62.2589L159.997 64.2949L159.938 64.3495V62.372C159.938 62.32 159.955 62.2771 159.989 62.2433C160.023 62.2069 160.066 62.1887 160.118 62.1887Z" fill="black"/>
</svg>
