<svg width="32" height="32" viewBox="0 0 32 32" fill="none" xmlns="http://www.w3.org/2000/svg">
<rect width="32" height="32" rx="8.27273" fill="#4D94FF"/>
<path fill-rule="evenodd" clip-rule="evenodd" d="M17.5025 10.4438C17.5025 8.90967 18.7518 7.66602 20.2929 7.66602C21.834 7.66602 23.0833 8.90967 23.0833 10.4438C23.0833 11.9779 21.834 13.2216 20.2929 13.2216C19.5147 13.2216 18.8114 12.9043 18.3059 12.3939L14.443 15.024C14.4787 15.2014 14.4974 15.3847 14.4974 15.572C14.4974 15.9429 14.4242 16.2973 14.2913 16.6213L18.5269 19.4042C19.0076 19.0127 19.6227 18.7771 20.2929 18.7771C21.834 18.7771 23.0833 20.0208 23.0833 21.5549C23.0833 23.089 21.834 24.3327 20.2929 24.3327C18.7518 24.3327 17.5025 23.089 17.5025 21.5549C17.5025 21.1531 17.5885 20.7706 17.7431 20.4253L13.5417 17.6649C13.0516 18.0909 12.4096 18.3498 11.707 18.3498C10.1659 18.3498 8.91663 17.1061 8.91663 15.572C8.91663 14.0379 10.1659 12.7942 11.707 12.7942C12.5932 12.7942 13.3821 13.2054 13.8928 13.8453L17.6366 11.2964C17.5495 11.0273 17.5025 10.7407 17.5025 10.4438Z" fill="white"/>
</svg>
