<svg width="60" height="60" viewBox="0 0 60 60" fill="none" xmlns="http://www.w3.org/2000/svg">
    <g filter="url(#filter0_d_78_344)">
        <rect x="6" y="2" width="48" height="48" rx="12" fill="#FF8410" />
    </g>
    <path
        d="M38.95 18.13C38.66 17.71 38.29 17.34 37.87 17.05C36.92 16.36 35.68 16 34.19 16H25.81C25.61 16 25.41 16.01 25.22 16.03C21.94 16.24 20 18.37 20 21.81V30.19C20 31.68 20.36 32.92 21.05 33.87C21.34 34.29 21.71 34.66 22.13 34.95C22.95 35.55 23.99 35.9 25.22 35.98C25.41 35.99 25.61 36 25.81 36H34.19C37.83 36 40 33.83 40 30.19V21.81C40 20.32 39.64 19.08 38.95 18.13ZM29.39 29.88H26.52C26.11 29.88 25.77 29.54 25.77 29.13C25.77 28.72 26.11 28.38 26.52 28.38H27.52V21.91H24.95C24.84 21.91 24.75 22 24.75 22.11V22.89C24.75 23.3 24.41 23.63 24 23.63C23.59 23.63 23.25 23.3 23.25 22.88V22.1C23.25 21.16 24.01 20.4 24.95 20.4H31.59C32.53 20.4 33.29 21.16 33.29 22.1V22.88C33.29 23.29 32.95 23.63 32.54 23.63C32.13 23.63 31.79 23.29 31.79 22.88V22.1C31.79 21.99 31.7 21.9 31.59 21.9H29.02V28.38H29.39C29.8 28.38 30.14 28.72 30.14 29.13C30.14 29.54 29.8 29.88 29.39 29.88ZM36.75 26.23C36.75 26.64 36.41 26.98 36 26.98C35.59 26.98 35.25 26.64 35.25 26.23V25.9H33.7V30.1H34.05C34.46 30.1 34.8 30.44 34.8 30.85C34.8 31.26 34.46 31.6 34.05 31.6H31.85C31.44 31.6 31.1 31.26 31.1 30.85C31.1 30.44 31.44 30.1 31.85 30.1H32.2V25.9H31.72C31.31 25.9 30.97 25.56 30.97 25.15C30.97 24.74 31.31 24.4 31.72 24.4H35.32C36.11 24.4 36.75 25.04 36.75 25.83V26.23Z"
        fill="white" />
    <defs>
        <filter id="filter0_d_78_344" x="0.6" y="0.6" width="58.8" height="58.8"
            filterUnits="userSpaceOnUse" color-interpolation-filters="sRGB">
            <feFlood flood-opacity="0" result="BackgroundImageFix" />
            <feColorMatrix in="SourceAlpha" type="matrix"
                values="0 0 0 0 0 0 0 0 0 0 0 0 0 0 0 0 0 0 127 0" result="hardAlpha" />
            <feOffset dy="4" />
            <feGaussianBlur stdDeviation="2.7" />
            <feComposite in2="hardAlpha" operator="out" />
            <feColorMatrix type="matrix"
                values="0 0 0 0 1 0 0 0 0 0.517647 0 0 0 0 0.0627451 0 0 0 0.29 0" />
            <feBlend mode="normal" in2="BackgroundImageFix" result="effect1_dropShadow_78_344" />
            <feBlend mode="normal" in="SourceGraphic" in2="effect1_dropShadow_78_344"
                result="shape" />
        </filter>
    </defs>
</svg>
