<svg width="48" height="48" viewBox="0 0 48 48" fill="none" xmlns="http://www.w3.org/2000/svg">
<rect opacity="0.12" width="48" height="48" rx="12" fill="#1DA1F2"/>
<path d="M35.5232 16.2053C34.6411 16.6464 33.7589 16.7934 32.7298 16.9404C33.7589 16.3523 34.494 15.4702 34.7881 14.294C33.906 14.8821 32.8768 15.1762 31.7007 15.4702C30.8185 14.5881 29.4954 14 28.1722 14C25.0848 14 22.7325 16.9404 23.4675 19.8808C19.498 19.7338 15.9695 17.8225 13.4702 14.8821C12.147 17.0874 12.8821 19.8808 14.9404 21.351C14.2053 21.351 13.4702 21.057 12.7351 20.7629C12.7351 22.9682 14.3523 25.0265 16.5576 25.6146C15.8225 25.7616 15.0874 25.9086 14.3523 25.7616C14.9404 27.6728 16.7046 29.143 18.9099 29.143C17.1457 30.4662 14.4993 31.2013 12 30.9073C14.2053 32.2305 16.7046 33.1126 19.351 33.1126C28.3192 33.1126 33.3179 25.6146 33.0238 18.7046C34.053 18.1166 34.9351 17.2344 35.5232 16.2053Z" fill="#1DA1F2"/>
</svg>
