<svg width="60" height="60" viewBox="0 0 60 60" fill="none" xmlns="http://www.w3.org/2000/svg">
<g filter="url(#filter0_d_78_365)">
<rect x="6" y="2" width="48" height="48" rx="12" fill="#0CBEFF"/>
</g>
<path fill-rule="evenodd" clip-rule="evenodd" d="M33.0916 18.3613C33.336 18.1082 33.6284 17.9063 33.9517 17.7675C34.2751 17.6286 34.6228 17.5555 34.9747 17.5524C35.3265 17.5494 35.6755 17.6164 36.0011 17.7496C36.3268 17.8829 36.6227 18.0797 36.8715 18.3285C37.1203 18.5773 37.3171 18.8732 37.4503 19.1988C37.5836 19.5245 37.6506 19.8735 37.6476 20.2253C37.6445 20.5772 37.5714 20.9249 37.4325 21.2482C37.2937 21.5716 37.0918 21.864 36.8387 22.1084L32.8637 26.0834C32.3667 26.5802 31.6928 26.8593 30.9901 26.8593C30.2874 26.8593 29.6135 26.5802 29.1166 26.0834C28.8667 25.8421 28.532 25.7085 28.1846 25.7115C27.8372 25.7145 27.5048 25.8539 27.2592 26.0996C27.0135 26.3452 26.8742 26.6775 26.8711 27.025C26.8681 27.3724 27.0017 27.7071 27.243 27.957C28.2369 28.9506 29.5848 29.5087 30.9901 29.5087C32.3955 29.5087 33.7433 28.9506 34.7372 27.957L38.7122 23.982C39.6777 22.9824 40.2119 21.6436 40.1998 20.2539C40.1877 18.8643 39.6303 17.535 38.6477 16.5523C37.665 15.5697 36.3357 15.0123 34.946 15.0002C33.5564 14.9881 32.2176 15.5223 31.218 16.4878L29.2305 18.4753C29.104 18.5975 29.003 18.7437 28.9336 18.9054C28.8641 19.067 28.8276 19.2409 28.8261 19.4168C28.8245 19.5927 28.8581 19.7672 28.9247 19.9301C28.9913 20.0929 29.0897 20.2408 29.2141 20.3652C29.3385 20.4897 29.4864 20.588 29.6493 20.6547C29.8121 20.7213 29.9866 20.7548 30.1625 20.7533C30.3385 20.7517 30.5123 20.7152 30.674 20.6458C30.8356 20.5763 30.9818 20.4754 31.1041 20.3488L33.0916 18.3613ZM26.4666 24.9863C26.9635 24.4895 27.6374 24.2104 28.3401 24.2104C29.0428 24.2104 29.7167 24.4895 30.2137 24.9863C30.3359 25.1129 30.4821 25.2138 30.6438 25.2833C30.8054 25.3527 30.9793 25.3892 31.1552 25.3908C31.3311 25.3923 31.5056 25.3588 31.6685 25.2922C31.8313 25.2255 31.9792 25.1271 32.1036 25.0027C32.2281 24.8783 32.3264 24.7304 32.3931 24.5676C32.4597 24.4047 32.4932 24.2302 32.4917 24.0543C32.4901 23.8784 32.4536 23.7045 32.3842 23.5429C32.3147 23.3812 32.2138 23.235 32.0872 23.1128C31.0933 22.1192 29.7455 21.561 28.3401 21.561C26.9348 21.561 25.5869 22.1192 24.593 23.1128L20.618 27.0878C20.1118 27.5767 19.7081 28.1615 19.4303 28.8081C19.1525 29.4547 19.0063 30.1502 19.0002 30.8539C18.9941 31.5577 19.1282 32.2556 19.3947 32.9069C19.6612 33.5583 20.0547 34.15 20.5523 34.6477C21.05 35.1453 21.6417 35.5388 22.2931 35.8053C22.9444 36.0718 23.6423 36.2059 24.3461 36.1998C25.0498 36.1937 25.7452 36.0475 26.3919 35.7697C27.0385 35.4919 27.6233 35.0882 28.1122 34.582L30.0997 32.5945C30.2263 32.4722 30.3272 32.326 30.3967 32.1644C30.4661 32.0027 30.5027 31.8289 30.5042 31.6529C30.5057 31.477 30.4722 31.3025 30.4056 31.1397C30.3389 30.9768 30.2406 30.8289 30.1161 30.7045C29.9917 30.5801 29.8438 30.4817 29.681 30.4151C29.5181 30.3485 29.3436 30.3149 29.1677 30.3165C28.9918 30.318 28.8179 30.3545 28.6563 30.424C28.4946 30.4934 28.3484 30.5944 28.2262 30.7209L26.2387 32.7084C25.9942 32.9615 25.7018 33.1634 25.3785 33.3023C25.0552 33.4412 24.7075 33.5143 24.3556 33.5173C24.0037 33.5204 23.6548 33.4533 23.3291 33.3201C23.0034 33.1868 22.7075 32.9901 22.4587 32.7413C22.2099 32.4924 22.0131 32.1966 21.8799 31.8709C21.7467 31.5452 21.6796 31.1963 21.6827 30.8444C21.6857 30.4925 21.7588 30.1448 21.8977 29.8215C22.0366 29.4982 22.2385 29.2058 22.4916 28.9613L26.4666 24.9863Z" fill="white"/>
<defs>
<filter id="filter0_d_78_365" x="0.6" y="0.6" width="58.8" height="58.8" filterUnits="userSpaceOnUse" color-interpolation-filters="sRGB">
<feFlood flood-opacity="0" result="BackgroundImageFix"/>
<feColorMatrix in="SourceAlpha" type="matrix" values="0 0 0 0 0 0 0 0 0 0 0 0 0 0 0 0 0 0 127 0" result="hardAlpha"/>
<feOffset dy="4"/>
<feGaussianBlur stdDeviation="2.7"/>
<feComposite in2="hardAlpha" operator="out"/>
<feColorMatrix type="matrix" values="0 0 0 0 0.0470588 0 0 0 0 0.745098 0 0 0 0 1 0 0 0 0.29 0"/>
<feBlend mode="normal" in2="BackgroundImageFix" result="effect1_dropShadow_78_365"/>
<feBlend mode="normal" in="SourceGraphic" in2="effect1_dropShadow_78_365" result="shape"/>
</filter>
</defs>
</svg>
