<svg width="48" height="48" viewBox="0 0 48 48" fill="none" xmlns="http://www.w3.org/2000/svg">
<rect opacity="0.12" width="48" height="48" rx="12" fill="#25D366"/>
<path fill-rule="evenodd" clip-rule="evenodd" d="M31.9947 15.3815C29.7894 13.1762 26.849 12 23.7616 12C17.2927 12 12 17.2927 12 23.7616C12 25.8199 12.5881 27.8781 13.6172 29.6424L12 35.5232L18.1749 33.906C19.9391 34.7881 21.8503 35.3762 23.7616 35.3762C30.2305 35.3762 35.5232 30.0834 35.5232 23.6146C35.5232 20.5272 34.2 17.5868 31.9947 15.3815ZM23.7616 33.4649C21.9974 33.4649 20.2331 33.0238 18.7629 32.1417L18.4689 31.9947L14.7934 33.0238L15.8225 29.4954L15.5285 29.0543C14.4993 27.4371 14.0583 25.6728 14.0583 23.9086C14.0583 18.6159 18.4689 14.2053 23.7616 14.2053C26.4079 14.2053 28.7603 15.2344 30.6715 16.9987C32.5828 18.9099 33.4649 21.2623 33.4649 23.9086C33.4649 29.0543 29.2013 33.4649 23.7616 33.4649ZM29.0543 26.1139C28.7603 25.9669 27.2901 25.2318 26.996 25.2318C26.702 25.0848 26.5549 25.0848 26.4079 25.3788C26.2609 25.6728 25.6729 26.2609 25.5258 26.555C25.3788 26.702 25.2318 26.702 24.9377 26.702C24.6437 26.555 23.7616 26.2609 22.5854 25.2318C21.7033 24.4967 21.1152 23.4676 20.9682 23.1735C20.8212 22.8795 20.9682 22.7324 21.1152 22.5854C21.2623 22.4384 21.4093 22.2914 21.5563 22.1444C21.7033 21.9973 21.7033 21.8503 21.8503 21.7033C21.9974 21.5563 21.8503 21.4093 21.8503 21.2623C21.8503 21.1152 21.2623 19.645 20.9682 19.057C20.8212 18.6159 20.5272 18.6159 20.3801 18.6159C20.2331 18.6159 20.0861 18.6159 19.792 18.6159C19.645 18.6159 19.351 18.6159 19.0569 18.9099C18.7629 19.204 18.0278 19.9391 18.0278 21.4093C18.0278 22.8795 19.0569 24.2026 19.204 24.4967C19.351 24.6437 21.2622 27.7311 24.2026 28.9073C26.702 29.9364 27.1431 29.6424 27.7311 29.6424C28.3192 29.6424 29.4954 28.9073 29.6424 28.3192C29.9364 27.5841 29.9364 26.996 29.7894 26.996C29.6424 26.2609 29.3484 26.2609 29.0543 26.1139Z" fill="#25D366"/>
</svg>
