<svg width="60" height="60" viewBox="0 0 60 60" fill="none" xmlns="http://www.w3.org/2000/svg">
<g filter="url(#filter0_d_78_347)">
<rect x="6" y="2" width="48" height="48" rx="12" fill="#35D6A5"/>
</g>
<path d="M34.19 16H25.81C22.17 16 20 18.17 20 21.81V30.18C20 33.83 22.17 36 25.81 36H34.18C37.82 36 39.99 33.83 39.99 30.19V21.81C40 18.17 37.83 16 34.19 16ZM32.79 30.6C32.64 30.79 32.42 30.89 32.2 30.89C32.04 30.89 31.88 30.84 31.74 30.73C30.68 29.91 29.31 29.91 28.25 30.73C27.92 30.98 27.45 30.92 27.2 30.6C26.95 30.27 27.01 29.8 27.33 29.55C28.92 28.32 31.06 28.32 32.65 29.55C32.99 29.8 33.05 30.27 32.79 30.6ZM35 27.51C34.85 27.7 34.63 27.8 34.41 27.8C34.25 27.8 34.09 27.75 33.95 27.64C31.55 25.79 28.46 25.79 26.06 27.64C25.73 27.9 25.26 27.84 25 27.51C24.74 27.18 24.81 26.71 25.13 26.46C28.08 24.18 31.9 24.18 34.85 26.46C35.19 26.71 35.25 27.18 35 27.51ZM36.59 24.42C36.44 24.61 36.22 24.71 36 24.71C35.84 24.71 35.68 24.66 35.54 24.55C32.17 21.95 27.82 21.95 24.46 24.55C24.13 24.8 23.66 24.74 23.41 24.42C23.16 24.09 23.22 23.62 23.54 23.37C27.46 20.34 32.53 20.34 36.46 23.37C36.79 23.62 36.85 24.09 36.59 24.42Z" fill="white"/>
<defs>
<filter id="filter0_d_78_347" x="0.6" y="0.6" width="58.8" height="58.8" filterUnits="userSpaceOnUse" color-interpolation-filters="sRGB">
<feFlood flood-opacity="0" result="BackgroundImageFix"/>
<feColorMatrix in="SourceAlpha" type="matrix" values="0 0 0 0 0 0 0 0 0 0 0 0 0 0 0 0 0 0 127 0" result="hardAlpha"/>
<feOffset dy="4"/>
<feGaussianBlur stdDeviation="2.7"/>
<feComposite in2="hardAlpha" operator="out"/>
<feColorMatrix type="matrix" values="0 0 0 0 0.207843 0 0 0 0 0.839216 0 0 0 0 0.647059 0 0 0 0.29 0"/>
<feBlend mode="normal" in2="BackgroundImageFix" result="effect1_dropShadow_78_347"/>
<feBlend mode="normal" in="SourceGraphic" in2="effect1_dropShadow_78_347" result="shape"/>
</filter>
</defs>
</svg>
