<svg width="48" height="48" viewBox="0 0 48 48" fill="none" xmlns="http://www.w3.org/2000/svg">
<rect opacity="0.12" width="48" height="48" rx="12" fill="#F21818"/>
<path d="M35.0688 18.5139C34.773 17.4788 34.0336 16.7394 32.9985 16.4436C31.224 16 23.6822 16 23.6822 16C23.6822 16 16.2884 16 14.366 16.4436C13.3309 16.7394 12.5915 17.4788 12.2957 18.5139C12 20.4363 12 24.2811 12 24.2811C12 24.2811 12 28.1259 12.4436 30.0483C12.7394 31.0834 13.4788 31.8228 14.5139 32.1185C16.2884 32.5622 23.8301 32.5622 23.8301 32.5622C23.8301 32.5622 31.2239 32.5622 33.1463 32.1185C34.1815 31.8228 34.9209 31.0834 35.2166 30.0483C35.6603 28.1259 35.6603 24.2811 35.6603 24.2811C35.6603 24.2811 35.6603 20.4363 35.0688 18.5139ZM21.4641 27.8301V20.7321L27.6749 24.2811L21.4641 27.8301Z" fill="#F33838"/>
</svg>
